<svg xmlns="http://www.w3.org/2000/svg" xmlns:xlink="http://www.w3.org/1999/xlink" width="36.855mm" height="62.205mm" viewBox="4040.6 3855 145.1 244.9"><title></title><style type="text/css">
*[layerid="1"] {stroke:#000000;fill:#000000;}
*[layerid="2"] {stroke:#000000;fill:#000000;}
*[layerid="3"] {stroke:#000000;fill:#000000;}
*[layerid="4"] {stroke:#000000;fill:#000000;}
*[layerid="5"] {stroke:#000000;fill:#000000;}
*[layerid="6"] {stroke:#000000;fill:#000000;}
*[layerid="7"] {stroke:#000000;fill:#000000;}
*[layerid="8"] {stroke:#000000;fill:#000000;}
*[layerid="9"] {stroke:#000000;fill:#000000;}
*[layerid="10"] {stroke:#000000;fill:#000000;}
*[layerid="11"] {stroke:#000000;fill:#000000;}
*[layerid="12"] {stroke:#000000;fill:#000000;}
*[layerid="13"] {stroke:#000000;fill:#000000;}
*[layerid="14"] {stroke:#000000;fill:#000000;}
*[layerid="15"] {stroke:#000000;fill:#000000;}
*[layerid="19"] {stroke:#000000;fill:#000000;}
*[layerid="21"] {stroke:#000000;fill:#000000;}
*[layerid="22"] {stroke:#000000;fill:#000000;}
*[layerid="23"] {stroke:#000000;fill:#000000;}
*[layerid="24"] {stroke:#000000;fill:#000000;}
*[layerid="25"] {stroke:#000000;fill:#000000;}
*[layerid="26"] {stroke:#000000;fill:#000000;}
*[layerid="27"] {stroke:#000000;fill:#000000;}
*[layerid="28"] {stroke:#000000;fill:#000000;}
*[layerid="29"] {stroke:#000000;fill:#000000;}
*[layerid="30"] {stroke:#000000;fill:#000000;}
*[layerid="31"] {stroke:#000000;fill:#000000;}
*[layerid="32"] {stroke:#000000;fill:#000000;}
*[layerid="33"] {stroke:#000000;fill:#000000;}
*[layerid="34"] {stroke:#000000;fill:#000000;}
*[layerid="35"] {stroke:#000000;fill:#000000;}
*[layerid="36"] {stroke:#000000;fill:#000000;}
*[layerid="37"] {stroke:#000000;fill:#000000;}
*[layerid="38"] {stroke:#000000;fill:#000000;}
*[layerid="39"] {stroke:#000000;fill:#000000;}
*[layerid="40"] {stroke:#000000;fill:#000000;}
*[layerid="41"] {stroke:#000000;fill:#000000;}
*[layerid="42"] {stroke:#000000;fill:#000000;}
*[layerid="43"] {stroke:#000000;fill:#000000;}
*[layerid="44"] {stroke:#000000;fill:#000000;}
*[layerid="45"] {stroke:#000000;fill:#000000;}
*[layerid="46"] {stroke:#000000;fill:#000000;}
*[layerid="47"] {stroke:#000000;fill:#000000;}
*[layerid="48"] {stroke:#000000;fill:#000000;}
*[layerid="49"] {stroke:#000000;fill:#000000;}
*[layerid="50"] {stroke:#000000;fill:#000000;}
*[layerid="51"] {stroke:#000000;fill:#000000;}
*[layerid="52"] {stroke:#000000;fill:#000000;}
*[layerid="99"] {stroke:#000000;fill:#000000;}
*[layerid="100"] {stroke:#000000;fill:#000000;}
*[layerid="Hole"] {stroke:#000000;fill:#000000;}
*[layerid="DRCError"] {stroke:#000000;fill:#000000;}
*[fill="none"] {fill: none;}
*[stroke="none"] {stroke: none;}
path, polyline, polygon, line {stroke-linecap:round;}
g[c_partid="part_pad"][layerid="1"] ellipse:not([c_etype="pad_outer"]) {fill:#000000;}
g[c_partid="part_pad"][layerid="1"] polygon:not([c_etype="pad_outer"]) {fill:#000000;}
g[c_partid="part_pad"][layerid="1"] polyline:not([c_etype="pad_outer"]) {stroke:#000000;}
g[c_partid="part_pad"][layerid="2"] ellipse:not([c_etype="pad_outer"]) {fill:#000000;}
g[c_partid="part_pad"][layerid="2"] polygon:not([c_etype="pad_outer"]) {fill:#000000;}
g[c_partid="part_pad"][layerid="2"] polyline:not([c_etype="pad_outer"]) {stroke:#000000;}
g[c_partid="part_pad"][layerid="11"] ellipse:not([c_etype="pad_outer"]) {fill:#000000;}
g[c_partid="part_pad"][layerid="11"] polygon:not([c_etype="pad_outer"]) {fill:#000000;}
g[c_partid="part_pad"][layerid="11"] polyline:not([c_etype="pad_outer"]) {stroke:#000000;}
g[c_partid="part_pad"][layerid="11"] circle {fill:#FFFFFF;}
g[c_partid="part_pad"][layerid="11"] > polyline:nth-of-type(2) {stroke:#FFFFFF;}
g[c_partid="part_pad"][layerid="11"][c_shape="ELLIPSE"]  polyline:nth-last-of-type(1) {stroke:#FFFFFF;}
g[c_partid="part_pad"][layerid="11"][c_shape="RECT"]  polyline:nth-last-of-type(1) {stroke:#FFFFFF;}
g[c_partid="part_pad"][layerid="11"][c_shape="POLYGON"]  polyline:nth-last-of-type(1) {stroke:#FFFFFF;}
g[c_partid="part_via"] > * + circle, #gCurParts g[c_partid="part_via"] > * + circle {fill:#FFFFFF;}
g[c_partid="part_pad"] > polygon[c_etype="pad_outer"], #gCurParts g[c_partid="part_pad"] > polygon[c_etype="pad_outer"] {stroke-linejoin: miter;stroke-miterlimit: 100;}
g[c_partid="part_hole"] > circle {fill: #FFFFFF;}path, polyline, polygon {stroke-linejoin:round;}
rect, circle, ellipse, polyline, line, polygon, path {shape-rendering:crispEdges;}
</style>
<rect x="4040.6" y="3855" width="145.1" height="244.9" fill="#FFFFFF" stroke="none"/><polyline points="4069.6 4077.95 4052.5 4060.85 4052.5 3963.05 4057.6 3957.95" stroke-width="1.0236"  stroke-linecap="round" fill="none" layerid="1" net="MODE" id="gge1083" locked="0" /><polyline points="4069.6 4057.95 4057.6 4045.95 4057.6 3997.95" stroke-width="1.0236"  stroke-linecap="round" fill="none" layerid="1" net="AIN2" id="gge1084" locked="0" /><polyline points="4069.6 4027.95 4079 4020.5 4079 3951.77 4113.11 3917.93 4117.6 3917.95" stroke-width="1.9685"  stroke-linecap="round" fill="none" layerid="1" net="3V3" id="gge1082" locked="0" /><polyline points="4154 3984 4159 3984 4164.5 3978.5 4164.5 3949 4148.11 3932.61 4148.11 3927" stroke-width="9.8425"  stroke-linecap="round" fill="none" layerid="1" net="GND" id="gge1067" locked="0" /><polyline points="4154 3974 4154 3962 4135 3943" stroke-width="1.0236"  stroke-linecap="round" fill="none" layerid="1" net="CH3" id="gge1079" locked="0" /><polyline points="4099.6 4017.95 4126.05 4017.95 4154 3990 4154 3984" stroke-width="9.8425"  stroke-linecap="round" fill="none" layerid="1" net="GND" id="gge1068" locked="0" /><polyline points="4144.16 3887 4148.11 3890.95 4148.11 3927" stroke-width="9.8425"  stroke-linecap="round" fill="none" layerid="1" net="GND" id="gge1070" locked="0" /><polyline points="4163.84 3887 4161.89 3888.95 4161.89 3927" stroke-width="9.8425"  stroke-linecap="round" fill="none" layerid="1" net="BAT" id="gge1075" locked="0" /><polyline points="4144 3984 4130.5 3970.5 4130.5 3930.85 4117.6 3917.95" stroke-width="1.9685"  stroke-linecap="round" fill="none" layerid="1" net="3V3" id="gge1081" locked="0" /><polyline points="4069.6 4067.95 4087.6 4049.95 4087.6 3997.95 4117.6 3967.95" stroke-width="1.0236"  stroke-linecap="round" fill="none" layerid="1" net="AIN1" id="gge1085" locked="0" /><polyline points="4057.6 3907.95 4057.6 3917.95" stroke-width="7.874"  stroke-linecap="round" fill="none" layerid="1" net="GND" id="gge1066" locked="0" /><polyline points="4057.6 3907.95 4057.6 3917.95" stroke-width="7.874"  stroke-linecap="round" fill="none" layerid="1" net="GND" id="gge1065" locked="0" /><g c_partid="part_pad" c_etype="pinpart" c_origin="4148.11,3927" layerid="11" number="2" net="GND" plated ="Y"  id="gge790" locked="0" c_rotation="270" c_width="6.2992" c_height="6.2992" title="GND" c_shape="ELLIPSE" pasteexpansion="0" solderexpansion="0.4"><ellipse c_etype="pad_shell" cx="4148.11" cy="3927" rx="3.1496" ry="3.1496" layerid="11" stroke-width="0"/><circle c_etype="pad_hole" cx="4148.11" cy="3927" r="1.9685" layerid="11" stroke-width="0"/></g><g c_partid="part_pad" c_etype="pinpart" c_origin="4161.89,3927" layerid="11" number="1" net="BAT" plated ="Y"  id="gge795" locked="0" c_rotation="270" c_width="6.2992" c_height="6.2992" title="BAT" c_shape="ELLIPSE" pasteexpansion="0" solderexpansion="0.4"><ellipse c_etype="pad_shell" cx="4161.89" cy="3927" rx="3.1496" ry="3.1496" layerid="11" stroke-width="0"/><circle c_etype="pad_hole" cx="4161.89" cy="3927" r="1.9685" layerid="11" stroke-width="0"/></g><g c_partid="part_pad" c_etype="pinpart" c_origin="4144,3974" layerid="11" number="1" net="CH1" plated ="Y"  id="gge10" locked="0" c_rotation="270" c_width="6.2" c_height="6.2" title="CH1" c_shape="RECT" pasteexpansion="0" solderexpansion="0.4"><polygon  c_etype="pad_shell" points="4147.1 3970.9 4147.1 3977.1 4140.9 3977.1 4140.9 3970.9" layerid="11" stroke-width="0" /><circle c_etype="pad_hole" cx="4144" cy="3974" r="1.75" layerid="11" stroke-width="0"/></g><g c_partid="part_pad" c_etype="pinpart" c_origin="4154,3974" layerid="11" number="2" net="CH3" plated ="Y"  id="gge15" locked="0" c_rotation="270" c_width="6.2" c_height="6.2" title="CH3" c_shape="ELLIPSE" pasteexpansion="0" solderexpansion="0.4"><ellipse c_etype="pad_shell" cx="4154" cy="3974" rx="3.1" ry="3.1" layerid="11" stroke-width="0"/><circle c_etype="pad_hole" cx="4154" cy="3974" r="1.75" layerid="11" stroke-width="0"/></g><g c_partid="part_pad" c_etype="pinpart" c_origin="4144,3984" layerid="11" number="3" net="3V3" plated ="Y"  id="gge20" locked="0" c_rotation="270" c_width="6.2" c_height="6.2" title="3V3" c_shape="ELLIPSE" pasteexpansion="0" solderexpansion="0.4"><ellipse c_etype="pad_shell" cx="4144" cy="3984" rx="3.1" ry="3.1" layerid="11" stroke-width="0"/><circle c_etype="pad_hole" cx="4144" cy="3984" r="1.75" layerid="11" stroke-width="0"/></g><g c_partid="part_pad" c_etype="pinpart" c_origin="4154,3984" layerid="11" number="4" net="GND" plated ="Y"  id="gge25" locked="0" c_rotation="270" c_width="6.2" c_height="6.2" title="GND" c_shape="ELLIPSE" pasteexpansion="0" solderexpansion="0.4"><ellipse c_etype="pad_shell" cx="4154" cy="3984" rx="3.1" ry="3.1" layerid="11" stroke-width="0"/><circle c_etype="pad_hole" cx="4154" cy="3984" r="1.75" layerid="11" stroke-width="0"/></g><g c_partid="part_pad" c_etype="pinpart" c_origin="4057.6,3887.95" layerid="11" number="1" net="" plated ="Y"  id="gge101" locked="0" c_rotation="0" c_width="6" c_height="6" title="" c_shape="ELLIPSE" pasteexpansion="0" solderexpansion="0.4"><ellipse c_etype="pad_shell" cx="4057.6" cy="3887.95" rx="3" ry="3" layerid="11" stroke-width="0"/><circle c_etype="pad_hole" cx="4057.6" cy="3887.95" r="1.8" layerid="11" stroke-width="0"/></g><g c_partid="part_pad" c_etype="pinpart" c_origin="4057.6,3897.95" layerid="11" number="2" net="" plated ="Y"  id="gge106" locked="0" c_rotation="0" c_width="6" c_height="6" title="" c_shape="ELLIPSE" pasteexpansion="0" solderexpansion="0.4"><ellipse c_etype="pad_shell" cx="4057.6" cy="3897.95" rx="3" ry="3" layerid="11" stroke-width="0"/><circle c_etype="pad_hole" cx="4057.6" cy="3897.95" r="1.8" layerid="11" stroke-width="0"/></g><g c_partid="part_pad" c_etype="pinpart" c_origin="4057.6,3907.95" layerid="11" number="3" net="GND" plated ="Y"  id="gge111" locked="0" c_rotation="0" c_width="6" c_height="6" title="GND" c_shape="ELLIPSE" pasteexpansion="0" solderexpansion="0.4"><ellipse c_etype="pad_shell" cx="4057.6" cy="3907.95" rx="3" ry="3" layerid="11" stroke-width="0"/><circle c_etype="pad_hole" cx="4057.6" cy="3907.95" r="1.8" layerid="11" stroke-width="0"/></g><g c_partid="part_pad" c_etype="pinpart" c_origin="4057.6,3917.95" layerid="11" number="4" net="GND" plated ="Y"  id="gge116" locked="0" c_rotation="0" c_width="6" c_height="6" title="GND" c_shape="ELLIPSE" pasteexpansion="0" solderexpansion="0.4"><ellipse c_etype="pad_shell" cx="4057.6" cy="3917.95" rx="3" ry="3" layerid="11" stroke-width="0"/><circle c_etype="pad_hole" cx="4057.6" cy="3917.95" r="1.8" layerid="11" stroke-width="0"/></g><g c_partid="part_pad" c_etype="pinpart" c_origin="4057.6,3927.95" layerid="11" number="5" net="" plated ="Y"  id="gge121" locked="0" c_rotation="0" c_width="6" c_height="6" title="" c_shape="ELLIPSE" pasteexpansion="0" solderexpansion="0.4"><ellipse c_etype="pad_shell" cx="4057.6" cy="3927.95" rx="3" ry="3" layerid="11" stroke-width="0"/><circle c_etype="pad_hole" cx="4057.6" cy="3927.95" r="1.8" layerid="11" stroke-width="0"/></g><g c_partid="part_pad" c_etype="pinpart" c_origin="4057.6,3937.95" layerid="11" number="6" net="" plated ="Y"  id="gge126" locked="0" c_rotation="0" c_width="6" c_height="6" title="" c_shape="ELLIPSE" pasteexpansion="0" solderexpansion="0.4"><ellipse c_etype="pad_shell" cx="4057.6" cy="3937.95" rx="3" ry="3" layerid="11" stroke-width="0"/><circle c_etype="pad_hole" cx="4057.6" cy="3937.95" r="1.8" layerid="11" stroke-width="0"/></g><g c_partid="part_pad" c_etype="pinpart" c_origin="4057.6,3947.95" layerid="11" number="7" net="" plated ="Y"  id="gge131" locked="0" c_rotation="0" c_width="6" c_height="6" title="" c_shape="ELLIPSE" pasteexpansion="0" solderexpansion="0.4"><ellipse c_etype="pad_shell" cx="4057.6" cy="3947.95" rx="3" ry="3" layerid="11" stroke-width="0"/><circle c_etype="pad_hole" cx="4057.6" cy="3947.95" r="1.8" layerid="11" stroke-width="0"/></g><g c_partid="part_pad" c_etype="pinpart" c_origin="4057.6,3957.95" layerid="11" number="8" net="MODE" plated ="Y"  id="gge136" locked="0" c_rotation="0" c_width="6" c_height="6" title="MODE" c_shape="ELLIPSE" pasteexpansion="0" solderexpansion="0.4"><ellipse c_etype="pad_shell" cx="4057.6" cy="3957.95" rx="3" ry="3" layerid="11" stroke-width="0"/><circle c_etype="pad_hole" cx="4057.6" cy="3957.95" r="1.8" layerid="11" stroke-width="0"/></g><g c_partid="part_pad" c_etype="pinpart" c_origin="4057.6,3967.95" layerid="11" number="9" net="" plated ="Y"  id="gge141" locked="0" c_rotation="0" c_width="6" c_height="6" title="" c_shape="ELLIPSE" pasteexpansion="0" solderexpansion="0.4"><ellipse c_etype="pad_shell" cx="4057.6" cy="3967.95" rx="3" ry="3" layerid="11" stroke-width="0"/><circle c_etype="pad_hole" cx="4057.6" cy="3967.95" r="1.8" layerid="11" stroke-width="0"/></g><g c_partid="part_pad" c_etype="pinpart" c_origin="4057.6,3977.95" layerid="11" number="10" net="CH1" plated ="Y"  id="gge146" locked="0" c_rotation="0" c_width="6" c_height="6" title="CH1" c_shape="ELLIPSE" pasteexpansion="0" solderexpansion="0.4"><ellipse c_etype="pad_shell" cx="4057.6" cy="3977.95" rx="3" ry="3" layerid="11" stroke-width="0"/><circle c_etype="pad_hole" cx="4057.6" cy="3977.95" r="1.8" layerid="11" stroke-width="0"/></g><g c_partid="part_pad" c_etype="pinpart" c_origin="4057.6,3987.95" layerid="11" number="11" net="CH3" plated ="Y"  id="gge151" locked="0" c_rotation="0" c_width="6" c_height="6" title="CH3" c_shape="ELLIPSE" pasteexpansion="0" solderexpansion="0.4"><ellipse c_etype="pad_shell" cx="4057.6" cy="3987.95" rx="3" ry="3" layerid="11" stroke-width="0"/><circle c_etype="pad_hole" cx="4057.6" cy="3987.95" r="1.8" layerid="11" stroke-width="0"/></g><g c_partid="part_pad" c_etype="pinpart" c_origin="4057.6,3997.95" layerid="11" number="12" net="AIN2" plated ="Y"  id="gge156" locked="0" c_rotation="0" c_width="6" c_height="6" title="AIN2" c_shape="ELLIPSE" pasteexpansion="0" solderexpansion="0.4"><ellipse c_etype="pad_shell" cx="4057.6" cy="3997.95" rx="3" ry="3" layerid="11" stroke-width="0"/><circle c_etype="pad_hole" cx="4057.6" cy="3997.95" r="1.8" layerid="11" stroke-width="0"/></g><g c_partid="part_pad" c_etype="pinpart" c_origin="4117.6,3887.95" layerid="11" number="13" net="BAT" plated ="Y"  id="gge161" locked="0" c_rotation="0" c_width="6" c_height="6" title="BAT" c_shape="ELLIPSE" pasteexpansion="0" solderexpansion="0.4"><ellipse c_etype="pad_shell" cx="4117.6" cy="3887.95" rx="3" ry="3" layerid="11" stroke-width="0"/><circle c_etype="pad_hole" cx="4117.6" cy="3887.95" r="1.8" layerid="11" stroke-width="0"/></g><g c_partid="part_pad" c_etype="pinpart" c_origin="4117.6,3897.95" layerid="11" number="14" net="GND" plated ="Y"  id="gge166" locked="0" c_rotation="0" c_width="6" c_height="6" title="GND" c_shape="ELLIPSE" pasteexpansion="0" solderexpansion="0.4"><ellipse c_etype="pad_shell" cx="4117.6" cy="3897.95" rx="3" ry="3" layerid="11" stroke-width="0"/><circle c_etype="pad_hole" cx="4117.6" cy="3897.95" r="1.8" layerid="11" stroke-width="0"/></g><g c_partid="part_pad" c_etype="pinpart" c_origin="4117.6,3907.95" layerid="11" number="15" net="" plated ="Y"  id="gge171" locked="0" c_rotation="0" c_width="6" c_height="6" title="" c_shape="ELLIPSE" pasteexpansion="0" solderexpansion="0.4"><ellipse c_etype="pad_shell" cx="4117.6" cy="3907.95" rx="3" ry="3" layerid="11" stroke-width="0"/><circle c_etype="pad_hole" cx="4117.6" cy="3907.95" r="1.8" layerid="11" stroke-width="0"/></g><g c_partid="part_pad" c_etype="pinpart" c_origin="4117.6,3917.95" layerid="11" number="16" net="3V3" plated ="Y"  id="gge176" locked="0" c_rotation="0" c_width="6" c_height="6" title="3V3" c_shape="ELLIPSE" pasteexpansion="0" solderexpansion="0.4"><ellipse c_etype="pad_shell" cx="4117.6" cy="3917.95" rx="3" ry="3" layerid="11" stroke-width="0"/><circle c_etype="pad_hole" cx="4117.6" cy="3917.95" r="1.8" layerid="11" stroke-width="0"/></g><g c_partid="part_pad" c_etype="pinpart" c_origin="4117.6,3927.95" layerid="11" number="17" net="" plated ="Y"  id="gge181" locked="0" c_rotation="0" c_width="6" c_height="6" title="" c_shape="ELLIPSE" pasteexpansion="0" solderexpansion="0.4"><ellipse c_etype="pad_shell" cx="4117.6" cy="3927.95" rx="3" ry="3" layerid="11" stroke-width="0"/><circle c_etype="pad_hole" cx="4117.6" cy="3927.95" r="1.8" layerid="11" stroke-width="0"/></g><g c_partid="part_pad" c_etype="pinpart" c_origin="4117.6,3937.95" layerid="11" number="18" net="" plated ="Y"  id="gge186" locked="0" c_rotation="0" c_width="6" c_height="6" title="" c_shape="ELLIPSE" pasteexpansion="0" solderexpansion="0.4"><ellipse c_etype="pad_shell" cx="4117.6" cy="3937.95" rx="3" ry="3" layerid="11" stroke-width="0"/><circle c_etype="pad_hole" cx="4117.6" cy="3937.95" r="1.8" layerid="11" stroke-width="0"/></g><g c_partid="part_pad" c_etype="pinpart" c_origin="4117.6,3947.95" layerid="11" number="19" net="" plated ="Y"  id="gge191" locked="0" c_rotation="0" c_width="6" c_height="6" title="" c_shape="ELLIPSE" pasteexpansion="0" solderexpansion="0.4"><ellipse c_etype="pad_shell" cx="4117.6" cy="3947.95" rx="3" ry="3" layerid="11" stroke-width="0"/><circle c_etype="pad_hole" cx="4117.6" cy="3947.95" r="1.8" layerid="11" stroke-width="0"/></g><g c_partid="part_pad" c_etype="pinpart" c_origin="4117.6,3957.95" layerid="11" number="20" net="" plated ="Y"  id="gge196" locked="0" c_rotation="0" c_width="6" c_height="6" title="" c_shape="ELLIPSE" pasteexpansion="0" solderexpansion="0.4"><ellipse c_etype="pad_shell" cx="4117.6" cy="3957.95" rx="3" ry="3" layerid="11" stroke-width="0"/><circle c_etype="pad_hole" cx="4117.6" cy="3957.95" r="1.8" layerid="11" stroke-width="0"/></g><g c_partid="part_pad" c_etype="pinpart" c_origin="4117.6,3967.95" layerid="11" number="21" net="AIN1" plated ="Y"  id="gge201" locked="0" c_rotation="0" c_width="6" c_height="6" title="AIN1" c_shape="ELLIPSE" pasteexpansion="0" solderexpansion="0.4"><ellipse c_etype="pad_shell" cx="4117.6" cy="3967.95" rx="3" ry="3" layerid="11" stroke-width="0"/><circle c_etype="pad_hole" cx="4117.6" cy="3967.95" r="1.8" layerid="11" stroke-width="0"/></g><g c_partid="part_pad" c_etype="pinpart" c_origin="4117.6,3977.95" layerid="11" number="22" net="BIN1" plated ="Y"  id="gge206" locked="0" c_rotation="0" c_width="6" c_height="6" title="BIN1" c_shape="ELLIPSE" pasteexpansion="0" solderexpansion="0.4"><ellipse c_etype="pad_shell" cx="4117.6" cy="3977.95" rx="3" ry="3" layerid="11" stroke-width="0"/><circle c_etype="pad_hole" cx="4117.6" cy="3977.95" r="1.8" layerid="11" stroke-width="0"/></g><g c_partid="part_pad" c_etype="pinpart" c_origin="4117.6,3987.95" layerid="11" number="23" net="" plated ="Y"  id="gge211" locked="0" c_rotation="0" c_width="6" c_height="6" title="" c_shape="ELLIPSE" pasteexpansion="0" solderexpansion="0.4"><ellipse c_etype="pad_shell" cx="4117.6" cy="3987.95" rx="3" ry="3" layerid="11" stroke-width="0"/><circle c_etype="pad_hole" cx="4117.6" cy="3987.95" r="1.8" layerid="11" stroke-width="0"/></g><g c_partid="part_pad" c_etype="pinpart" c_origin="4117.6,3997.95" layerid="11" number="24" net="BIN2" plated ="Y"  id="gge216" locked="0" c_rotation="0" c_width="6" c_height="6" title="BIN2" c_shape="ELLIPSE" pasteexpansion="0" solderexpansion="0.4"><ellipse c_etype="pad_shell" cx="4117.6" cy="3997.95" rx="3" ry="3" layerid="11" stroke-width="0"/><circle c_etype="pad_hole" cx="4117.6" cy="3997.95" r="1.8" layerid="11" stroke-width="0"/></g><g c_partid="part_pad" c_etype="pinpart" c_origin="4163.842,3887" layerid="11" number="1" net="BAT" plated ="Y"  id="gge232" locked="0" c_rotation="180" c_width="9.8425" c_height="9.8425" title="BAT" c_shape="ELLIPSE" pasteexpansion="0" solderexpansion="0.4"><ellipse c_etype="pad_shell" cx="4163.842" cy="3887" rx="4.92125" ry="4.92125" layerid="11" stroke-width="0"/><circle c_etype="pad_hole" cx="4163.843" cy="3887" r="3.1496" layerid="11" stroke-width="0"/></g><g c_partid="part_pad" c_etype="pinpart" c_origin="4144.158,3887" layerid="11" number="2" net="GND" plated ="Y"  id="gge237" locked="0" c_rotation="180" c_width="9.8425" c_height="9.8425" title="GND" c_shape="ELLIPSE" pasteexpansion="0" solderexpansion="0.4"><ellipse c_etype="pad_shell" cx="4144.158" cy="3887" rx="4.92125" ry="4.92125" layerid="11" stroke-width="0"/><circle c_etype="pad_hole" cx="4144.158" cy="3887" r="3.1496" layerid="11" stroke-width="0"/></g><g c_partid="part_pad" c_etype="pinpart" c_origin="4150.6,4034.793" layerid="11" number="1" net="BOUT1" plated ="Y"  id="gge253" locked="0" c_rotation="90" c_width="9.8425" c_height="9.8425" title="BOUT1" c_shape="ELLIPSE" pasteexpansion="0" solderexpansion="0.4"><ellipse c_etype="pad_shell" cx="4150.6" cy="4034.793" rx="4.92125" ry="4.92125" layerid="11" stroke-width="0"/><circle c_etype="pad_hole" cx="4150.6" cy="4034.793" r="3.1496" layerid="11" stroke-width="0"/></g><g c_partid="part_pad" c_etype="pinpart" c_origin="4150.6,4015.108" layerid="11" number="2" net="BOUT2" plated ="Y"  id="gge258" locked="0" c_rotation="90" c_width="9.8425" c_height="9.8425" title="BOUT2" c_shape="ELLIPSE" pasteexpansion="0" solderexpansion="0.4"><ellipse c_etype="pad_shell" cx="4150.6" cy="4015.108" rx="4.92125" ry="4.92125" layerid="11" stroke-width="0"/><circle c_etype="pad_hole" cx="4150.6" cy="4015.108" r="3.1496" layerid="11" stroke-width="0"/></g><g c_partid="part_pad" c_etype="pinpart" c_origin="4151.1,4077.793" layerid="11" number="1" net="AOUT1" plated ="Y"  id="gge274" locked="0" c_rotation="90" c_width="9.8425" c_height="9.8425" title="AOUT1" c_shape="ELLIPSE" pasteexpansion="0" solderexpansion="0.4"><ellipse c_etype="pad_shell" cx="4151.1" cy="4077.793" rx="4.92125" ry="4.92125" layerid="11" stroke-width="0"/><circle c_etype="pad_hole" cx="4151.1" cy="4077.793" r="3.1496" layerid="11" stroke-width="0"/></g><g c_partid="part_pad" c_etype="pinpart" c_origin="4151.1,4058.108" layerid="11" number="2" net="AOUT2" plated ="Y"  id="gge279" locked="0" c_rotation="90" c_width="9.8425" c_height="9.8425" title="AOUT2" c_shape="ELLIPSE" pasteexpansion="0" solderexpansion="0.4"><ellipse c_etype="pad_shell" cx="4151.1" cy="4058.108" rx="4.92125" ry="4.92125" layerid="11" stroke-width="0"/><circle c_etype="pad_hole" cx="4151.1" cy="4058.108" r="3.1496" layerid="11" stroke-width="0"/></g><g c_partid="part_pad" c_etype="pinpart" c_origin="4069.6,4017.95" layerid="11" number="1" net="GND" plated ="Y"  id="gge320" locked="0" c_rotation="0" c_width="5.9055" c_height="5.9055" title="GND" c_shape="ELLIPSE" pasteexpansion="0" solderexpansion="0"><ellipse c_etype="pad_shell" cx="4069.6" cy="4017.95" rx="2.95275" ry="2.95275" layerid="11" stroke-width="0"/><circle c_etype="pad_hole" cx="4069.6" cy="4017.95" r="1.5748" layerid="11" stroke-width="0"/></g><g c_partid="part_pad" c_etype="pinpart" c_origin="4069.6,4027.95" layerid="11" number="2" net="3V3" plated ="Y"  id="gge325" locked="0" c_rotation="0" c_width="5.9055" c_height="5.9055" title="3V3" c_shape="ELLIPSE" pasteexpansion="0" solderexpansion="0"><ellipse c_etype="pad_shell" cx="4069.6" cy="4027.95" rx="2.95275" ry="2.95275" layerid="11" stroke-width="0"/><circle c_etype="pad_hole" cx="4069.6" cy="4027.95" r="1.5748" layerid="11" stroke-width="0"/></g><g c_partid="part_pad" c_etype="pinpart" c_origin="4069.6,4037.95" layerid="11" number="3" net="BIN2" plated ="Y"  id="gge330" locked="0" c_rotation="0" c_width="5.9055" c_height="5.9055" title="BIN2" c_shape="ELLIPSE" pasteexpansion="0" solderexpansion="0"><ellipse c_etype="pad_shell" cx="4069.6" cy="4037.95" rx="2.95275" ry="2.95275" layerid="11" stroke-width="0"/><circle c_etype="pad_hole" cx="4069.6" cy="4037.95" r="1.5748" layerid="11" stroke-width="0"/></g><g c_partid="part_pad" c_etype="pinpart" c_origin="4069.6,4047.95" layerid="11" number="4" net="BIN1" plated ="Y"  id="gge335" locked="0" c_rotation="0" c_width="5.9055" c_height="5.9055" title="BIN1" c_shape="ELLIPSE" pasteexpansion="0" solderexpansion="0"><ellipse c_etype="pad_shell" cx="4069.6" cy="4047.95" rx="2.95275" ry="2.95275" layerid="11" stroke-width="0"/><circle c_etype="pad_hole" cx="4069.6" cy="4047.95" r="1.5748" layerid="11" stroke-width="0"/></g><g c_partid="part_pad" c_etype="pinpart" c_origin="4069.6,4057.95" layerid="11" number="5" net="AIN2" plated ="Y"  id="gge340" locked="0" c_rotation="0" c_width="5.9055" c_height="5.9055" title="AIN2" c_shape="ELLIPSE" pasteexpansion="0" solderexpansion="0"><ellipse c_etype="pad_shell" cx="4069.6" cy="4057.95" rx="2.95275" ry="2.95275" layerid="11" stroke-width="0"/><circle c_etype="pad_hole" cx="4069.6" cy="4057.95" r="1.5748" layerid="11" stroke-width="0"/></g><g c_partid="part_pad" c_etype="pinpart" c_origin="4069.6,4067.95" layerid="11" number="6" net="AIN1" plated ="Y"  id="gge345" locked="0" c_rotation="0" c_width="5.9055" c_height="5.9055" title="AIN1" c_shape="ELLIPSE" pasteexpansion="0" solderexpansion="0"><ellipse c_etype="pad_shell" cx="4069.6" cy="4067.95" rx="2.95275" ry="2.95275" layerid="11" stroke-width="0"/><circle c_etype="pad_hole" cx="4069.6" cy="4067.95" r="1.5748" layerid="11" stroke-width="0"/></g><g c_partid="part_pad" c_etype="pinpart" c_origin="4069.6,4077.95" layerid="11" number="7" net="MODE" plated ="Y"  id="gge350" locked="0" c_rotation="0" c_width="5.9055" c_height="5.9055" title="MODE" c_shape="ELLIPSE" pasteexpansion="0" solderexpansion="0"><ellipse c_etype="pad_shell" cx="4069.6" cy="4077.95" rx="2.95275" ry="2.95275" layerid="11" stroke-width="0"/><circle c_etype="pad_hole" cx="4069.6" cy="4077.95" r="1.5748" layerid="11" stroke-width="0"/></g><g c_partid="part_pad" c_etype="pinpart" c_origin="4099.6,4077.95" layerid="11" number="8" net="" plated ="Y"  id="gge355" locked="0" c_rotation="0" c_width="5.9055" c_height="5.9055" title="" c_shape="ELLIPSE" pasteexpansion="0" solderexpansion="0"><ellipse c_etype="pad_shell" cx="4099.6" cy="4077.95" rx="2.95275" ry="2.95275" layerid="11" stroke-width="0"/><circle c_etype="pad_hole" cx="4099.6" cy="4077.95" r="1.5748" layerid="11" stroke-width="0"/></g><g c_partid="part_pad" c_etype="pinpart" c_origin="4099.6,4067.95" layerid="11" number="9" net="AOUT1" plated ="Y"  id="gge360" locked="0" c_rotation="0" c_width="5.9055" c_height="5.9055" title="AOUT1" c_shape="ELLIPSE" pasteexpansion="0" solderexpansion="0"><ellipse c_etype="pad_shell" cx="4099.6" cy="4067.95" rx="2.95275" ry="2.95275" layerid="11" stroke-width="0"/><circle c_etype="pad_hole" cx="4099.6" cy="4067.95" r="1.5748" layerid="11" stroke-width="0"/></g><g c_partid="part_pad" c_etype="pinpart" c_origin="4099.6,4057.95" layerid="11" number="10" net="AOUT2" plated ="Y"  id="gge365" locked="0" c_rotation="0" c_width="5.9055" c_height="5.9055" title="AOUT2" c_shape="ELLIPSE" pasteexpansion="0" solderexpansion="0"><ellipse c_etype="pad_shell" cx="4099.6" cy="4057.95" rx="2.95275" ry="2.95275" layerid="11" stroke-width="0"/><circle c_etype="pad_hole" cx="4099.6" cy="4057.95" r="1.5748" layerid="11" stroke-width="0"/></g><g c_partid="part_pad" c_etype="pinpart" c_origin="4099.6,4047.95" layerid="11" number="11" net="BOUT1" plated ="Y"  id="gge370" locked="0" c_rotation="0" c_width="5.9055" c_height="5.9055" title="BOUT1" c_shape="ELLIPSE" pasteexpansion="0" solderexpansion="0"><ellipse c_etype="pad_shell" cx="4099.6" cy="4047.95" rx="2.95275" ry="2.95275" layerid="11" stroke-width="0"/><circle c_etype="pad_hole" cx="4099.6" cy="4047.95" r="1.5748" layerid="11" stroke-width="0"/></g><g c_partid="part_pad" c_etype="pinpart" c_origin="4099.6,4037.95" layerid="11" number="12" net="BOUT2" plated ="Y"  id="gge375" locked="0" c_rotation="0" c_width="5.9055" c_height="5.9055" title="BOUT2" c_shape="ELLIPSE" pasteexpansion="0" solderexpansion="0"><ellipse c_etype="pad_shell" cx="4099.6" cy="4037.95" rx="2.95275" ry="2.95275" layerid="11" stroke-width="0"/><circle c_etype="pad_hole" cx="4099.6" cy="4037.95" r="1.5748" layerid="11" stroke-width="0"/></g><g c_partid="part_pad" c_etype="pinpart" c_origin="4099.6,4027.95" layerid="11" number="13" net="BAT" plated ="Y"  id="gge380" locked="0" c_rotation="0" c_width="5.9055" c_height="5.9055" title="BAT" c_shape="ELLIPSE" pasteexpansion="0" solderexpansion="0"><ellipse c_etype="pad_shell" cx="4099.6" cy="4027.95" rx="2.95275" ry="2.95275" layerid="11" stroke-width="0"/><circle c_etype="pad_hole" cx="4099.6" cy="4027.95" r="1.5748" layerid="11" stroke-width="0"/></g><g c_partid="part_pad" c_etype="pinpart" c_origin="4099.6,4017.95" layerid="11" number="14" net="GND" plated ="Y"  id="gge385" locked="0" c_rotation="0" c_width="5.9055" c_height="5.9055" title="GND" c_shape="ELLIPSE" pasteexpansion="0" solderexpansion="0"><ellipse c_etype="pad_shell" cx="4099.6" cy="4017.95" rx="2.95275" ry="2.95275" layerid="11" stroke-width="0"/><circle c_etype="pad_hole" cx="4099.6" cy="4017.95" r="1.5748" layerid="11" stroke-width="0"/></g><g c_partid="part_via" c_etype="pinpart" c_shapetype="group" net="CH3" c_origin="4135,3943" layerid="11" id="gge1080" locked="0" solderexpansion=""><circle cx="4135" cy="3943" r="1.2008" stroke-width="0" c_etype="pad_shell"/><circle cx="4135" cy="3943" r="0.6102"  stroke-width="0" c_etype="pad_hole"/></g><polyline points="4166.0898 3929.9 4166.0898 3935.2" stroke-width="1"  stroke-linecap="round" fill="none" layerid="3" net="" id="gge784" locked="0" /><polyline points="4163.5898 3932.6 4168.4898 3932.6" stroke-width="1"  stroke-linecap="round" fill="none" layerid="3" net="" id="gge785" locked="0" /><polyline points="4159 3969 4159 3989 4139 3989 4139 3969 4159 3969" stroke-width="0.8"  stroke-linecap="round" fill="none" layerid="3" net="" id="gge7" locked="0" /><polyline points="4169.0005 3872.5 4169.0005 3879.5 4158.5005 3879.5 4158.5005 3872.5" stroke-width="1"  stroke-linecap="round" fill="none" layerid="3" net="" id="gge227" locked="0" /><polyline points="4149.5005 3872.5 4149.5005 3879.5 4139.0005 3879.5 4139.0005 3872.5" stroke-width="1"  stroke-linecap="round" fill="none" layerid="3" net="" id="gge228" locked="0" /><polyline points="4173.6855 3902.748 4134.3155 3902.748 4134.3155 3872.039 4173.6855 3872.039 4173.6855 3902.748" stroke-width="1"  stroke-linecap="round" fill="none" layerid="3" net="" id="gge231" locked="0" /><polyline points="4165.1 4039.9505 4158.1 4039.9505 4158.1 4029.4505 4165.1 4029.4505" stroke-width="1"  stroke-linecap="round" fill="none" layerid="3" net="" id="gge248" locked="0" /><polyline points="4165.1 4020.4505 4158.1 4020.4505 4158.1 4009.9505 4165.1 4009.9505" stroke-width="1"  stroke-linecap="round" fill="none" layerid="3" net="" id="gge249" locked="0" /><polyline points="4134.852 4044.6355 4134.852 4005.2655 4165.561 4005.2655 4165.561 4044.6355 4134.852 4044.6355" stroke-width="1"  stroke-linecap="round" fill="none" layerid="3" net="" id="gge252" locked="0" /><polyline points="4165.6 4082.9505 4158.6 4082.9505 4158.6 4072.4505 4165.6 4072.4505" stroke-width="1"  stroke-linecap="round" fill="none" layerid="3" net="" id="gge269" locked="0" /><polyline points="4165.6 4063.4505 4158.6 4063.4505 4158.6 4052.9505 4165.6 4052.9505" stroke-width="1"  stroke-linecap="round" fill="none" layerid="3" net="" id="gge270" locked="0" /><polyline points="4135.352 4087.6355 4135.352 4048.2655 4166.061 4048.2655 4166.061 4087.6355 4135.352 4087.6355" stroke-width="1"  stroke-linecap="round" fill="none" layerid="3" net="" id="gge273" locked="0" /><polyline points="4059.6 4007.95 4109.6 4007.95 4109.6 4087.95 4059.6 4087.95 4059.6 4007.95" stroke-width="1"  stroke-linecap="round" fill="none" layerid="3" net="" id="gge319" locked="0" /><g c_partid="part_pcbtext" c_etype="pinpart" c_origin="4161.5,3986.5" c_rotation="0" c_mirror="0" id="gge738" locked="0" layerid="3" c_shapetype="group" ><path c_fontsize="3.937" c_fontfamily="" c_text="GND" d="M 4164.18 3983.42 L 4164.01 3983.06 L 4163.65 3982.71 L 4163.29 3982.53 L 4162.57 3982.53 L 4162.22 3982.71 L 4161.86 3983.06 L 4161.68 3983.42 L 4161.5 3983.96 L 4161.5 3984.85 L 4161.68 3985.39 L 4161.86 3985.75 L 4162.22 3986.11 L 4162.57 3986.29 L 4163.29 3986.29 L 4163.65 3986.11 L 4164.01 3985.75 L 4164.18 3985.39 L 4164.18 3984.85 M 4163.29 3984.85 L 4164.18 3984.85 M 4165.37 3982.53 L 4165.37 3986.29 M 4165.37 3982.53 L 4167.87 3986.29 M 4167.87 3982.53 L 4167.87 3986.29 M 4169.05 3982.53 L 4169.05 3986.29 M 4169.05 3982.53 L 4170.3 3982.53 L 4170.84 3982.71 L 4171.2 3983.06 L 4171.38 3983.42 L 4171.56 3983.96 L 4171.56 3984.85 L 4171.38 3985.39 L 4171.2 3985.75 L 4170.84 3986.11 L 4170.3 3986.29 L 4169.05 3986.29" fill="none"  stroke-width="0.8"  /></g><g c_partid="part_pcbtext" c_etype="pinpart" c_origin="4161,3976.5" c_rotation="0" c_mirror="0" id="gge744" locked="0" layerid="3" c_shapetype="group" ><path c_fontsize="3.937" c_fontfamily="" c_text="CH3" d="M 4163.68 3973.42 L 4163.51 3973.06 L 4163.15 3972.71 L 4162.79 3972.53 L 4162.07 3972.53 L 4161.72 3972.71 L 4161.36 3973.06 L 4161.18 3973.42 L 4161 3973.96 L 4161 3974.85 L 4161.18 3975.39 L 4161.36 3975.75 L 4161.72 3976.11 L 4162.07 3976.29 L 4162.79 3976.29 L 4163.15 3976.11 L 4163.51 3975.75 L 4163.68 3975.39 M 4164.87 3972.53 L 4164.87 3976.29 M 4167.37 3972.53 L 4167.37 3976.29 M 4164.87 3974.32 L 4167.37 3974.32 M 4168.91 3972.53 L 4170.88 3972.53 L 4169.8 3973.96 L 4170.34 3973.96 L 4170.7 3974.14 L 4170.88 3974.32 L 4171.06 3974.85 L 4171.06 3975.21 L 4170.88 3975.75 L 4170.52 3976.11 L 4169.98 3976.29 L 4169.45 3976.29 L 4168.91 3976.11 L 4168.73 3975.93 L 4168.55 3975.57" fill="none"  stroke-width="0.8"  /></g><g c_partid="part_pcbtext" c_etype="pinpart" c_origin="4127,3976" c_rotation="0" c_mirror="0" id="gge752" locked="0" layerid="3" c_shapetype="group" ><path c_fontsize="3.937" c_fontfamily="" c_text="CH1" d="M 4129.68 3972.92 L 4129.51 3972.56 L 4129.15 3972.21 L 4128.79 3972.03 L 4128.07 3972.03 L 4127.72 3972.21 L 4127.36 3972.56 L 4127.18 3972.92 L 4127 3973.46 L 4127 3974.35 L 4127.18 3974.89 L 4127.36 3975.25 L 4127.72 3975.61 L 4128.07 3975.79 L 4128.79 3975.79 L 4129.15 3975.61 L 4129.51 3975.25 L 4129.68 3974.89 M 4130.87 3972.03 L 4130.87 3975.79 M 4133.37 3972.03 L 4133.37 3975.79 M 4130.87 3973.82 L 4133.37 3973.82 M 4134.55 3972.74 L 4134.91 3972.56 L 4135.45 3972.03 L 4135.45 3975.79" fill="none"  stroke-width="0.8"  /></g><g c_partid="part_pcbtext" c_etype="pinpart" c_origin="4126.5,3986" c_rotation="0" c_mirror="0" id="gge756" locked="0" layerid="3" c_shapetype="group" ><path c_fontsize="3.937" c_fontfamily="" c_text="3V3" d="M 4126.86 3982.03 L 4128.83 3982.03 L 4127.75 3983.46 L 4128.29 3983.46 L 4128.65 3983.64 L 4128.83 3983.82 L 4129.01 3984.35 L 4129.01 3984.71 L 4128.83 3985.25 L 4128.47 3985.61 L 4127.93 3985.79 L 4127.39 3985.79 L 4126.86 3985.61 L 4126.68 3985.43 L 4126.5 3985.07 M 4130.19 3982.03 L 4131.62 3985.79 M 4133.05 3982.03 L 4131.62 3985.79 M 4134.59 3982.03 L 4136.56 3982.03 L 4135.48 3983.46 L 4136.02 3983.46 L 4136.38 3983.64 L 4136.56 3983.82 L 4136.74 3984.35 L 4136.74 3984.71 L 4136.56 3985.25 L 4136.2 3985.61 L 4135.66 3985.79 L 4135.13 3985.79 L 4134.59 3985.61 L 4134.41 3985.43 L 4134.23 3985.07" fill="none"  stroke-width="0.8"  /></g><g c_partid="part_pcbtext" c_etype="pinpart" c_origin="4139.5,3871" c_rotation="0" c_mirror="0" id="gge770" locked="0" layerid="3" c_shapetype="group" ><path c_fontsize="3.937" c_fontfamily="" c_text="GND" d="M 4142.18 3867.92 L 4142.01 3867.56 L 4141.65 3867.21 L 4141.29 3867.03 L 4140.57 3867.03 L 4140.22 3867.21 L 4139.86 3867.56 L 4139.68 3867.92 L 4139.5 3868.46 L 4139.5 3869.35 L 4139.68 3869.89 L 4139.86 3870.25 L 4140.22 3870.61 L 4140.57 3870.79 L 4141.29 3870.79 L 4141.65 3870.61 L 4142.01 3870.25 L 4142.18 3869.89 L 4142.18 3869.35 M 4141.29 3869.35 L 4142.18 3869.35 M 4143.37 3867.03 L 4143.37 3870.79 M 4143.37 3867.03 L 4145.87 3870.79 M 4145.87 3867.03 L 4145.87 3870.79 M 4147.05 3867.03 L 4147.05 3870.79 M 4147.05 3867.03 L 4148.3 3867.03 L 4148.84 3867.21 L 4149.2 3867.56 L 4149.38 3867.92 L 4149.56 3868.46 L 4149.56 3869.35 L 4149.38 3869.89 L 4149.2 3870.25 L 4148.84 3870.61 L 4148.3 3870.79 L 4147.05 3870.79" fill="none"  stroke-width="0.8"  /></g><g c_partid="part_pcbtext" c_etype="pinpart" c_origin="4160,3871.5" c_rotation="0" c_mirror="0" id="gge773" locked="0" layerid="3" c_shapetype="group" ><path c_fontsize="3.937" c_fontfamily="" c_text="BAT" d="M 4160 3867.53 L 4160 3871.29 M 4160 3867.53 L 4161.61 3867.53 L 4162.15 3867.71 L 4162.33 3867.89 L 4162.51 3868.24 L 4162.51 3868.6 L 4162.33 3868.96 L 4162.15 3869.14 L 4161.61 3869.32 M 4160 3869.32 L 4161.61 3869.32 L 4162.15 3869.5 L 4162.33 3869.67 L 4162.51 3870.03 L 4162.51 3870.57 L 4162.33 3870.93 L 4162.15 3871.11 L 4161.61 3871.29 L 4160 3871.29 M 4165.12 3867.53 L 4163.69 3871.29 M 4165.12 3867.53 L 4166.55 3871.29 M 4164.22 3870.03 L 4166.01 3870.03 M 4168.98 3867.53 L 4168.98 3871.29 M 4167.73 3867.53 L 4170.24 3867.53" fill="none"  stroke-width="0.8"  /></g><g c_partid="part_pcbtext" c_etype="" c_origin="4135.898,3954.789" c_rotation="0" c_mirror="0" id="gge780" locked="0" layerid="3" c_shapetype="group" display="none"><path c_fontsize="4.5" c_fontfamily="" c_text="470uF" d="M 4137.9484 3950.2491 L 4135.8984 3953.1091 L 4138.9684 3953.1091 M 4137.9484 3950.2491 L 4137.9484 3954.5391 M 4143.1784 3950.2491 L 4141.1384 3954.5391 M 4140.3184 3950.2491 L 4143.1784 3950.2491 M 4145.7584 3950.2491 L 4145.1484 3950.4491 L 4144.7384 3951.0691 L 4144.5284 3952.0891 L 4144.5284 3952.6991 L 4144.7384 3953.7291 L 4145.1484 3954.3391 L 4145.7584 3954.5391 L 4146.1684 3954.5391 L 4146.7784 3954.3391 L 4147.1884 3953.7291 L 4147.3984 3952.6991 L 4147.3984 3952.0891 L 4147.1884 3951.0691 L 4146.7784 3950.4491 L 4146.1684 3950.2491 L 4145.7584 3950.2491 M 4148.7484 3951.6791 L 4148.7484 3953.7291 L 4148.9484 3954.3391 L 4149.3584 3954.5391 L 4149.9684 3954.5391 L 4150.3784 3954.3391 L 4150.9984 3953.7291 M 4150.9984 3951.6791 L 4150.9984 3954.5391 M 4152.3484 3950.2491 L 4152.3484 3954.5391 M 4152.3484 3950.2491 L 4154.9984 3950.2491 M 4152.3484 3952.2891 L 4153.9784 3952.2891" fill="none"  stroke-width="0.6" c_note="note_name" /></g><g c_partid="part_pcbtext" c_etype="" c_origin="4157.5,3911.5" c_rotation="180" c_mirror="0" id="gge782" locked="0" layerid="3" c_shapetype="group" ><path c_fontsize="4.5" c_fontfamily="" c_text="C1" d="M 4154.43 3915.02 L 4154.64 3915.43 L 4155.05 3915.84 L 4155.45 3916.04 L 4156.27 3916.04 L 4156.68 3915.84 L 4157.09 3915.43 L 4157.3 3915.02 L 4157.5 3914.4 L 4157.5 3913.38 L 4157.3 3912.77 L 4157.09 3912.36 L 4156.68 3911.95 L 4156.27 3911.75 L 4155.45 3911.75 L 4155.05 3911.95 L 4154.64 3912.36 L 4154.43 3912.77 M 4153.08 3915.22 L 4152.67 3915.43 L 4152.06 3916.04 L 4152.06 3911.75" fill="none"  stroke-width="0.6" c_note="note_pre" /></g><g c_partid="part_pcbtext" c_etype="" c_origin="4148.5,3961.5" c_rotation="0" c_mirror="0" id="gge3" locked="0" layerid="3" c_shapetype="group" display="none"><path c_fontsize="4.5" c_fontfamily="" c_text="HDR-M-2.54_2x2" d="M 4148.5 3956.96 L 4148.5 3961.25 M 4151.36 3956.96 L 4151.36 3961.25 M 4148.5 3959 L 4151.36 3959 M 4152.71 3956.96 L 4152.71 3961.25 M 4152.71 3956.96 L 4154.15 3956.96 L 4154.76 3957.16 L 4155.17 3957.57 L 4155.37 3957.98 L 4155.58 3958.6 L 4155.58 3959.62 L 4155.37 3960.23 L 4155.17 3960.64 L 4154.76 3961.05 L 4154.15 3961.25 L 4152.71 3961.25 M 4156.93 3956.96 L 4156.93 3961.25 M 4156.93 3956.96 L 4158.77 3956.96 L 4159.38 3957.16 L 4159.59 3957.37 L 4159.79 3957.78 L 4159.79 3958.19 L 4159.59 3958.6 L 4159.38 3958.8 L 4158.77 3959 L 4156.93 3959 M 4158.36 3959 L 4159.79 3961.25 M 4161.14 3959.41 L 4164.82 3959.41 M 4166.17 3956.96 L 4166.17 3961.25 M 4166.17 3956.96 L 4167.81 3961.25 M 4169.45 3956.96 L 4167.81 3961.25 M 4169.45 3956.96 L 4169.45 3961.25 M 4170.8 3959.41 L 4174.48 3959.41 M 4176.03 3957.98 L 4176.03 3957.78 L 4176.24 3957.37 L 4176.44 3957.16 L 4176.85 3956.96 L 4177.67 3956.96 L 4178.08 3957.16 L 4178.28 3957.37 L 4178.49 3957.78 L 4178.49 3958.19 L 4178.28 3958.6 L 4177.87 3959.21 L 4175.83 3961.25 L 4178.69 3961.25 M 4180.25 3960.23 L 4180.04 3960.44 L 4180.25 3960.64 L 4180.45 3960.44 L 4180.25 3960.23 M 4184.25 3956.96 L 4182.21 3956.96 L 4182 3958.8 L 4182.21 3958.6 L 4182.82 3958.39 L 4183.44 3958.39 L 4184.05 3958.6 L 4184.46 3959 L 4184.66 3959.62 L 4184.66 3960.03 L 4184.46 3960.64 L 4184.05 3961.05 L 4183.44 3961.25 L 4182.82 3961.25 L 4182.21 3961.05 L 4182 3960.85 L 4181.8 3960.44 M 4188.06 3956.96 L 4186.01 3959.82 L 4189.08 3959.82 M 4188.06 3956.96 L 4188.06 3961.25 M 4190.43 3962.69 L 4194.11 3962.69 M 4195.67 3957.98 L 4195.67 3957.78 L 4195.87 3957.37 L 4196.08 3957.16 L 4196.49 3956.96 L 4197.3 3956.96 L 4197.71 3957.16 L 4197.92 3957.37 L 4198.12 3957.78 L 4198.12 3958.19 L 4197.92 3958.6 L 4197.51 3959.21 L 4195.46 3961.25 L 4198.33 3961.25 M 4199.68 3958.39 L 4201.93 3961.25 M 4201.93 3958.39 L 4199.68 3961.25 M 4203.48 3957.98 L 4203.48 3957.78 L 4203.69 3957.37 L 4203.89 3957.16 L 4204.3 3956.96 L 4205.12 3956.96 L 4205.53 3957.16 L 4205.73 3957.37 L 4205.94 3957.78 L 4205.94 3958.19 L 4205.73 3958.6 L 4205.32 3959.21 L 4203.28 3961.25 L 4206.14 3961.25" fill="none"  stroke-width="0.6" c_note="note_name" /></g><g c_partid="part_pcbtext" c_etype="" c_origin="4136.9,3966.05" c_rotation="0" c_mirror="0" id="gge5" locked="0" layerid="3" c_shapetype="group" ><path c_fontsize="4.5" c_fontfamily="" c_text="RF_CON" d="M 4136.9 3961.51 L 4136.9 3965.8 M 4136.9 3961.51 L 4138.74 3961.51 L 4139.35 3961.71 L 4139.56 3961.92 L 4139.76 3962.33 L 4139.76 3962.74 L 4139.56 3963.15 L 4139.35 3963.35 L 4138.74 3963.55 L 4136.9 3963.55 M 4138.33 3963.55 L 4139.76 3965.8 M 4141.11 3961.51 L 4141.11 3965.8 M 4141.11 3961.51 L 4143.77 3961.51 M 4141.11 3963.55 L 4142.75 3963.55 M 4145.12 3967.24 L 4148.8 3967.24 M 4153.22 3962.53 L 4153.02 3962.12 L 4152.61 3961.71 L 4152.2 3961.51 L 4151.38 3961.51 L 4150.97 3961.71 L 4150.56 3962.12 L 4150.36 3962.53 L 4150.15 3963.15 L 4150.15 3964.17 L 4150.36 3964.78 L 4150.56 3965.19 L 4150.97 3965.6 L 4151.38 3965.8 L 4152.2 3965.8 L 4152.61 3965.6 L 4153.02 3965.19 L 4153.22 3964.78 M 4155.8 3961.51 L 4155.39 3961.71 L 4154.98 3962.12 L 4154.78 3962.53 L 4154.57 3963.15 L 4154.57 3964.17 L 4154.78 3964.78 L 4154.98 3965.19 L 4155.39 3965.6 L 4155.8 3965.8 L 4156.62 3965.8 L 4157.03 3965.6 L 4157.44 3965.19 L 4157.64 3964.78 L 4157.85 3964.17 L 4157.85 3963.15 L 4157.64 3962.53 L 4157.44 3962.12 L 4157.03 3961.71 L 4156.62 3961.51 L 4155.8 3961.51 M 4159.2 3961.51 L 4159.2 3965.8 M 4159.2 3961.51 L 4162.06 3965.8 M 4162.06 3961.51 L 4162.06 3965.8" fill="none"  stroke-width="0.6" c_note="note_pre" /></g><g c_partid="part_pcbtext" c_etype="" c_origin="4087.6,3859.95" c_rotation="0" c_mirror="0" id="gge94" locked="0" layerid="3" c_shapetype="group" display="none"><path c_fontsize="4.5" c_fontfamily="" c_text="PRO MICRO" d="M 4087.6 3855.41 L 4087.6 3859.7 M 4087.6 3855.41 L 4089.44 3855.41 L 4090.05 3855.61 L 4090.26 3855.82 L 4090.46 3856.23 L 4090.46 3856.84 L 4090.26 3857.25 L 4090.05 3857.45 L 4089.44 3857.66 L 4087.6 3857.66 M 4091.81 3855.41 L 4091.81 3859.7 M 4091.81 3855.41 L 4093.65 3855.41 L 4094.27 3855.61 L 4094.47 3855.82 L 4094.68 3856.23 L 4094.68 3856.64 L 4094.47 3857.05 L 4094.27 3857.25 L 4093.65 3857.45 L 4091.81 3857.45 M 4093.25 3857.45 L 4094.68 3859.7 M 4097.25 3855.41 L 4096.85 3855.61 L 4096.44 3856.02 L 4096.23 3856.43 L 4096.03 3857.05 L 4096.03 3858.07 L 4096.23 3858.68 L 4096.44 3859.09 L 4096.85 3859.5 L 4097.25 3859.7 L 4098.07 3859.7 L 4098.48 3859.5 L 4098.89 3859.09 L 4099.1 3858.68 L 4099.3 3858.07 L 4099.3 3857.05 L 4099.1 3856.43 L 4098.89 3856.02 L 4098.48 3855.61 L 4098.07 3855.41 L 4097.25 3855.41 M 4103.8 3855.41 L 4103.8 3859.7 M 4103.8 3855.41 L 4105.44 3859.7 M 4107.07 3855.41 L 4105.44 3859.7 M 4107.07 3855.41 L 4107.07 3859.7 M 4108.42 3855.41 L 4108.42 3859.7 M 4112.84 3856.43 L 4112.64 3856.02 L 4112.23 3855.61 L 4111.82 3855.41 L 4111 3855.41 L 4110.59 3855.61 L 4110.18 3856.02 L 4109.98 3856.43 L 4109.77 3857.05 L 4109.77 3858.07 L 4109.98 3858.68 L 4110.18 3859.09 L 4110.59 3859.5 L 4111 3859.7 L 4111.82 3859.7 L 4112.23 3859.5 L 4112.64 3859.09 L 4112.84 3858.68 M 4114.19 3855.41 L 4114.19 3859.7 M 4114.19 3855.41 L 4116.03 3855.41 L 4116.65 3855.61 L 4116.85 3855.82 L 4117.05 3856.23 L 4117.05 3856.64 L 4116.85 3857.05 L 4116.65 3857.25 L 4116.03 3857.45 L 4114.19 3857.45 M 4115.62 3857.45 L 4117.05 3859.7 M 4119.63 3855.41 L 4119.22 3855.61 L 4118.81 3856.02 L 4118.61 3856.43 L 4118.4 3857.05 L 4118.4 3858.07 L 4118.61 3858.68 L 4118.81 3859.09 L 4119.22 3859.5 L 4119.63 3859.7 L 4120.45 3859.7 L 4120.86 3859.5 L 4121.27 3859.09 L 4121.47 3858.68 L 4121.68 3858.07 L 4121.68 3857.05 L 4121.47 3856.43 L 4121.27 3856.02 L 4120.86 3855.61 L 4120.45 3855.41 L 4119.63 3855.41" fill="none"  stroke-width="0.6" c_note="note_name" /></g><g c_partid="part_pcbtext" c_etype="" c_origin="4087.6,3866.95" c_rotation="0" c_mirror="0" id="gge96" locked="0" layerid="3" c_shapetype="group" display="none"><path c_fontsize="4.5" c_fontfamily="" c_text="U1" d="M 4087.6 3862.41 L 4087.6 3865.48 L 4087.8 3866.09 L 4088.21 3866.5 L 4088.83 3866.7 L 4089.24 3866.7 L 4089.85 3866.5 L 4090.26 3866.09 L 4090.46 3865.48 L 4090.46 3862.41 M 4091.81 3863.23 L 4092.22 3863.02 L 4092.84 3862.41 L 4092.84 3866.7" fill="none"  stroke-width="0.6" c_note="note_pre" /></g><g c_partid="part_pcbtext" c_etype="" c_origin="4103.031,3915.789" c_rotation="0" c_mirror="0" id="gge223" locked="0" layerid="3" c_shapetype="group" display="none"><path c_fontsize="4.5" c_fontfamily="" c_text="DB126V-5.0-2P" d="M 4103.0308 3911.2491 L 4103.0308 3915.5391 M 4103.0308 3911.2491 L 4104.4608 3911.2491 L 4105.0808 3911.4491 L 4105.4808 3911.8591 L 4105.6908 3912.2691 L 4105.8908 3912.8891 L 4105.8908 3913.9091 L 4105.6908 3914.5191 L 4105.4808 3914.9291 L 4105.0808 3915.3391 L 4104.4608 3915.5391 L 4103.0308 3915.5391 M 4107.2408 3911.2491 L 4107.2408 3915.5391 M 4107.2408 3911.2491 L 4109.0808 3911.2491 L 4109.7008 3911.4491 L 4109.9008 3911.6591 L 4110.1108 3912.0691 L 4110.1108 3912.4791 L 4109.9008 3912.8891 L 4109.7008 3913.0891 L 4109.0808 3913.2891 M 4107.2408 3913.2891 L 4109.0808 3913.2891 L 4109.7008 3913.4991 L 4109.9008 3913.6991 L 4110.1108 3914.1091 L 4110.1108 3914.7291 L 4109.9008 3915.1391 L 4109.7008 3915.3391 L 4109.0808 3915.5391 L 4107.2408 3915.5391 M 4111.4608 3912.0691 L 4111.8708 3911.8591 L 4112.4808 3911.2491 L 4112.4808 3915.5391 M 4114.0308 3912.2691 L 4114.0308 3912.0691 L 4114.2408 3911.6591 L 4114.4408 3911.4491 L 4114.8507 3911.2491 L 4115.6708 3911.2491 L 4116.0808 3911.4491 L 4116.2808 3911.6591 L 4116.4908 3912.0691 L 4116.4908 3912.4791 L 4116.2808 3912.8891 L 4115.8808 3913.4991 L 4113.8308 3915.5391 L 4116.6908 3915.5391 M 4120.5008 3911.8591 L 4120.2908 3911.4491 L 4119.6807 3911.2491 L 4119.2708 3911.2491 L 4118.6608 3911.4491 L 4118.2508 3912.0691 L 4118.0408 3913.0891 L 4118.0408 3914.1091 L 4118.2508 3914.9291 L 4118.6608 3915.3391 L 4119.2708 3915.5391 L 4119.4808 3915.5391 L 4120.0907 3915.3391 L 4120.5008 3914.9291 L 4120.7008 3914.3191 L 4120.7008 3914.1091 L 4120.5008 3913.4991 L 4120.0907 3913.0891 L 4119.4808 3912.8891 L 4119.2708 3912.8891 L 4118.6608 3913.0891 L 4118.2508 3913.4991 L 4118.0408 3914.1091 M 4122.0508 3911.2491 L 4123.6908 3915.5391 M 4125.3308 3911.2491 L 4123.6908 3915.5391 M 4126.6807 3913.6991 L 4130.3608 3913.6991 M 4134.1608 3911.2491 L 4132.1208 3911.2491 L 4131.9108 3913.0891 L 4132.1208 3912.8891 L 4132.7308 3912.6791 L 4133.3407 3912.6791 L 4133.9608 3912.8891 L 4134.3708 3913.2891 L 4134.5708 3913.9091 L 4134.5708 3914.3191 L 4134.3708 3914.9291 L 4133.9608 3915.3391 L 4133.3407 3915.5391 L 4132.7308 3915.5391 L 4132.1208 3915.3391 L 4131.9108 3915.1391 L 4131.7108 3914.7291 M 4136.1308 3914.5191 L 4135.9208 3914.7291 L 4136.1308 3914.9291 L 4136.3308 3914.7291 L 4136.1308 3914.5191 M 4138.9108 3911.2491 L 4138.2908 3911.4491 L 4137.8808 3912.0691 L 4137.6807 3913.0891 L 4137.6807 3913.6991 L 4137.8808 3914.7291 L 4138.2908 3915.3391 L 4138.9108 3915.5391 L 4139.3208 3915.5391 L 4139.9307 3915.3391 L 4140.3407 3914.7291 L 4140.5408 3913.6991 L 4140.5408 3913.0891 L 4140.3407 3912.0691 L 4139.9307 3911.4491 L 4139.3208 3911.2491 L 4138.9108 3911.2491 M 4141.8908 3913.6991 L 4145.5808 3913.6991 M 4147.1308 3912.2691 L 4147.1308 3912.0691 L 4147.3308 3911.6591 L 4147.5408 3911.4491 L 4147.9508 3911.2491 L 4148.7708 3911.2491 L 4149.1807 3911.4491 L 4149.3808 3911.6591 L 4149.5808 3912.0691 L 4149.5808 3912.4791 L 4149.3808 3912.8891 L 4148.9708 3913.4991 L 4146.9307 3915.5391 L 4149.7908 3915.5391 M 4151.1408 3911.2491 L 4151.1408 3915.5391 M 4151.1408 3911.2491 L 4152.9808 3911.2491 L 4153.5907 3911.4491 L 4153.8008 3911.6591 L 4154.0008 3912.0691 L 4154.0008 3912.6791 L 4153.8008 3913.0891 L 4153.5907 3913.2891 L 4152.9808 3913.4991 L 4151.1408 3913.4991" fill="none"  stroke-width="0.6" c_note="note_name" /></g><g c_partid="part_pcbtext" c_etype="" c_origin="4168.5,3905" c_rotation="180" c_mirror="0" id="gge225" locked="0" layerid="3" c_shapetype="group" ><path c_fontsize="4.5" c_fontfamily="" c_text="BAT_CON" d="M 4168.4995 3909.54 L 4168.4995 3905.25 M 4168.4995 3909.54 L 4166.6595 3909.54 L 4166.0495 3909.34 L 4165.8395 3909.13 L 4165.6395 3908.72 L 4165.6395 3908.31 L 4165.8395 3907.9 L 4166.0495 3907.7 L 4166.6595 3907.5 M 4168.4995 3907.5 L 4166.6595 3907.5 L 4166.0495 3907.29 L 4165.8395 3907.09 L 4165.6395 3906.68 L 4165.6395 3906.06 L 4165.8395 3905.65 L 4166.0495 3905.45 L 4166.6595 3905.25 L 4168.4995 3905.25 M 4162.6495 3909.54 L 4164.2895 3905.25 M 4162.6495 3909.54 L 4161.0095 3905.25 M 4163.6695 3906.68 L 4161.6295 3906.68 M 4158.2295 3909.54 L 4158.2295 3905.25 M 4159.6595 3909.54 L 4156.7995 3909.54 M 4155.4495 3903.81 L 4151.7695 3903.81 M 4147.3495 3908.52 L 4147.5495 3908.93 L 4147.9595 3909.34 L 4148.3695 3909.54 L 4149.1895 3909.54 L 4149.5995 3909.34 L 4150.0095 3908.93 L 4150.2095 3908.52 L 4150.4195 3907.9 L 4150.4195 3906.88 L 4150.2095 3906.27 L 4150.0095 3905.86 L 4149.5995 3905.45 L 4149.1895 3905.25 L 4148.3695 3905.25 L 4147.9595 3905.45 L 4147.5495 3905.86 L 4147.3495 3906.27 M 4144.7695 3909.54 L 4145.1795 3909.34 L 4145.5895 3908.93 L 4145.7995 3908.52 L 4145.9995 3907.9 L 4145.9995 3906.88 L 4145.7995 3906.27 L 4145.5895 3905.86 L 4145.1795 3905.45 L 4144.7695 3905.25 L 4143.9495 3905.25 L 4143.5495 3905.45 L 4143.1395 3905.86 L 4142.9295 3906.27 L 4142.7295 3906.88 L 4142.7295 3907.9 L 4142.9295 3908.52 L 4143.1395 3908.93 L 4143.5495 3909.34 L 4143.9495 3909.54 L 4144.7695 3909.54 M 4141.3795 3909.54 L 4141.3795 3905.25 M 4141.3795 3909.54 L 4138.5095 3905.25 M 4138.5095 3909.54 L 4138.5095 3905.25" fill="none"  stroke-width="0.6" c_note="note_pre" /></g><g c_partid="part_pcbtext" c_etype="" c_origin="4126.6,4024.95" c_rotation="90" c_mirror="0" id="gge244" locked="0" layerid="3" c_shapetype="group" display="none"><path c_fontsize="4.5" c_fontfamily="" c_text="DB126V-5.0-2P" d="M 4122.06 4024.9504 L 4126.35 4024.9504 M 4122.06 4024.9504 L 4122.06 4023.5204 L 4122.26 4022.9004 L 4122.67 4022.5005 L 4123.08 4022.2904 L 4123.7 4022.0904 L 4124.72 4022.0904 L 4125.33 4022.2904 L 4125.74 4022.5005 L 4126.15 4022.9004 L 4126.35 4023.5204 L 4126.35 4024.9504 M 4122.06 4020.7405 L 4126.35 4020.7405 M 4122.06 4020.7405 L 4122.06 4018.9004 L 4122.26 4018.2804 L 4122.47 4018.0805 L 4122.88 4017.8704 L 4123.29 4017.8704 L 4123.7 4018.0805 L 4123.9 4018.2804 L 4124.1 4018.9004 M 4124.1 4020.7405 L 4124.1 4018.9004 L 4124.31 4018.2804 L 4124.51 4018.0805 L 4124.92 4017.8704 L 4125.54 4017.8704 L 4125.95 4018.0805 L 4126.15 4018.2804 L 4126.35 4018.9004 L 4126.35 4020.7405 M 4122.88 4016.5204 L 4122.67 4016.1104 L 4122.06 4015.5004 L 4126.35 4015.5004 M 4123.08 4013.9504 L 4122.88 4013.9504 L 4122.47 4013.7405 L 4122.26 4013.5404 L 4122.06 4013.1305 L 4122.06 4012.3104 L 4122.26 4011.9004 L 4122.47 4011.7004 L 4122.88 4011.4905 L 4123.29 4011.4905 L 4123.7 4011.7004 L 4124.31 4012.1004 L 4126.35 4014.1504 L 4126.35 4011.2904 M 4122.67 4007.4804 L 4122.26 4007.6904 L 4122.06 4008.3005 L 4122.06 4008.7104 L 4122.26 4009.3204 L 4122.88 4009.7304 L 4123.9 4009.9404 L 4124.92 4009.9404 L 4125.74 4009.7304 L 4126.15 4009.3204 L 4126.35 4008.7104 L 4126.35 4008.5004 L 4126.15 4007.8905 L 4125.74 4007.4804 L 4125.13 4007.2805 L 4124.92 4007.2805 L 4124.31 4007.4804 L 4123.9 4007.8905 L 4123.7 4008.5004 L 4123.7 4008.7104 L 4123.9 4009.3204 L 4124.31 4009.7304 L 4124.92 4009.9404 M 4122.06 4005.9304 L 4126.35 4004.2904 M 4122.06 4002.6504 L 4126.35 4004.2904 M 4124.51 4001.3005 L 4124.51 3997.6204 M 4122.06 3993.8204 L 4122.06 3995.8604 L 4123.9 3996.0704 L 4123.7 3995.8604 L 4123.49 3995.2504 L 4123.49 3994.6405 L 4123.7 3994.0204 L 4124.1 3993.6104 L 4124.72 3993.4104 L 4125.13 3993.4104 L 4125.74 3993.6104 L 4126.15 3994.0204 L 4126.35 3994.6405 L 4126.35 3995.2504 L 4126.15 3995.8604 L 4125.95 3996.0704 L 4125.54 3996.2704 M 4125.33 3991.8504 L 4125.54 3992.0604 L 4125.74 3991.8504 L 4125.54 3991.6504 L 4125.33 3991.8504 M 4122.06 3989.0704 L 4122.26 3989.6904 L 4122.88 3990.1004 L 4123.9 3990.3005 L 4124.51 3990.3005 L 4125.54 3990.1004 L 4126.15 3989.6904 L 4126.35 3989.0704 L 4126.35 3988.6604 L 4126.15 3988.0505 L 4125.54 3987.6405 L 4124.51 3987.4404 L 4123.9 3987.4404 L 4122.88 3987.6405 L 4122.26 3988.0505 L 4122.06 3988.6604 L 4122.06 3989.0704 M 4124.51 3986.0904 L 4124.51 3982.4004 M 4123.08 3980.8504 L 4122.88 3980.8504 L 4122.47 3980.6504 L 4122.26 3980.4404 L 4122.06 3980.0305 L 4122.06 3979.2104 L 4122.26 3978.8005 L 4122.47 3978.6004 L 4122.88 3978.4004 L 4123.29 3978.4004 L 4123.7 3978.6004 L 4124.31 3979.0104 L 4126.35 3981.0505 L 4126.35 3978.1904 M 4122.06 3976.8404 L 4126.35 3976.8404 M 4122.06 3976.8404 L 4122.06 3975.0004 L 4122.26 3974.3905 L 4122.47 3974.1804 L 4122.88 3973.9804 L 4123.49 3973.9804 L 4123.9 3974.1804 L 4124.1 3974.3905 L 4124.31 3975.0004 L 4124.31 3976.8404" fill="none"  stroke-width="0.6" c_note="note_name" /></g><g c_partid="part_pcbtext" c_etype="" c_origin="4133,4035.5" c_rotation="90" c_mirror="0" id="gge246" locked="0" layerid="3" c_shapetype="group" ><path c_fontsize="4.5" c_fontfamily="" c_text="MOTOR1" d="M 4128.46 4035.5 L 4132.75 4035.5 M 4128.46 4035.5 L 4132.75 4033.86 M 4128.46 4032.23 L 4132.75 4033.86 M 4128.46 4032.23 L 4132.75 4032.23 M 4128.46 4029.65 L 4128.66 4030.06 L 4129.07 4030.47 L 4129.48 4030.67 L 4130.1 4030.88 L 4131.12 4030.88 L 4131.73 4030.67 L 4132.14 4030.47 L 4132.55 4030.06 L 4132.75 4029.65 L 4132.75 4028.83 L 4132.55 4028.42 L 4132.14 4028.01 L 4131.73 4027.81 L 4131.12 4027.6 L 4130.1 4027.6 L 4129.48 4027.81 L 4129.07 4028.01 L 4128.66 4028.42 L 4128.46 4028.83 L 4128.46 4029.65 M 4128.46 4024.82 L 4132.75 4024.82 M 4128.46 4026.25 L 4128.46 4023.39 M 4128.46 4020.81 L 4128.66 4021.22 L 4129.07 4021.63 L 4129.48 4021.84 L 4130.1 4022.04 L 4131.12 4022.04 L 4131.73 4021.84 L 4132.14 4021.63 L 4132.55 4021.22 L 4132.75 4020.81 L 4132.75 4020 L 4132.55 4019.59 L 4132.14 4019.18 L 4131.73 4018.97 L 4131.12 4018.77 L 4130.1 4018.77 L 4129.48 4018.97 L 4129.07 4019.18 L 4128.66 4019.59 L 4128.46 4020 L 4128.46 4020.81 M 4128.46 4017.42 L 4132.75 4017.42 M 4128.46 4017.42 L 4128.46 4015.58 L 4128.66 4014.96 L 4128.87 4014.76 L 4129.28 4014.55 L 4129.69 4014.55 L 4130.1 4014.76 L 4130.3 4014.96 L 4130.5 4015.58 L 4130.5 4017.42 M 4130.5 4015.99 L 4132.75 4014.55 M 4129.28 4013.2 L 4129.07 4012.8 L 4128.46 4012.18 L 4132.75 4012.18" fill="none"  stroke-width="0.6" c_note="note_pre" /></g><g c_partid="part_pcbtext" c_etype="" c_origin="4127.1,4067.95" c_rotation="90" c_mirror="0" id="gge265" locked="0" layerid="3" c_shapetype="group" display="none"><path c_fontsize="4.5" c_fontfamily="" c_text="DB126V-5.0-2P" d="M 4122.56 4067.9504 L 4126.85 4067.9504 M 4122.56 4067.9504 L 4122.56 4066.5204 L 4122.76 4065.9004 L 4123.17 4065.5004 L 4123.58 4065.2904 L 4124.2 4065.0904 L 4125.22 4065.0904 L 4125.83 4065.2904 L 4126.24 4065.5004 L 4126.65 4065.9004 L 4126.85 4066.5204 L 4126.85 4067.9504 M 4122.56 4063.7405 L 4126.85 4063.7405 M 4122.56 4063.7405 L 4122.56 4061.9004 L 4122.76 4061.2805 L 4122.97 4061.0804 L 4123.38 4060.8704 L 4123.79 4060.8704 L 4124.2 4061.0804 L 4124.4 4061.2805 L 4124.6 4061.9004 M 4124.6 4063.7405 L 4124.6 4061.9004 L 4124.81 4061.2805 L 4125.01 4061.0804 L 4125.42 4060.8704 L 4126.04 4060.8704 L 4126.45 4061.0804 L 4126.65 4061.2805 L 4126.85 4061.9004 L 4126.85 4063.7405 M 4123.38 4059.5204 L 4123.17 4059.1104 L 4122.56 4058.5004 L 4126.85 4058.5004 M 4123.58 4056.9504 L 4123.38 4056.9504 L 4122.97 4056.7405 L 4122.76 4056.5404 L 4122.56 4056.1305 L 4122.56 4055.3104 L 4122.76 4054.9004 L 4122.97 4054.7004 L 4123.38 4054.4905 L 4123.79 4054.4905 L 4124.2 4054.7004 L 4124.81 4055.1004 L 4126.85 4057.1504 L 4126.85 4054.2904 M 4123.17 4050.4804 L 4122.76 4050.6904 L 4122.56 4051.3005 L 4122.56 4051.7104 L 4122.76 4052.3204 L 4123.38 4052.7304 L 4124.4 4052.9404 L 4125.42 4052.9404 L 4126.24 4052.7304 L 4126.65 4052.3204 L 4126.85 4051.7104 L 4126.85 4051.5004 L 4126.65 4050.8905 L 4126.24 4050.4804 L 4125.63 4050.2805 L 4125.42 4050.2805 L 4124.81 4050.4804 L 4124.4 4050.8905 L 4124.2 4051.5004 L 4124.2 4051.7104 L 4124.4 4052.3204 L 4124.81 4052.7304 L 4125.42 4052.9404 M 4122.56 4048.9304 L 4126.85 4047.2904 M 4122.56 4045.6504 L 4126.85 4047.2904 M 4125.01 4044.3005 L 4125.01 4040.6204 M 4122.56 4036.8204 L 4122.56 4038.8604 L 4124.4 4039.0704 L 4124.2 4038.8604 L 4123.99 4038.2505 L 4123.99 4037.6405 L 4124.2 4037.0204 L 4124.6 4036.6104 L 4125.22 4036.4105 L 4125.63 4036.4105 L 4126.24 4036.6104 L 4126.65 4037.0204 L 4126.85 4037.6405 L 4126.85 4038.2505 L 4126.65 4038.8604 L 4126.45 4039.0704 L 4126.04 4039.2704 M 4125.83 4034.8504 L 4126.04 4035.0604 L 4126.24 4034.8504 L 4126.04 4034.6504 L 4125.83 4034.8504 M 4122.56 4032.0704 L 4122.76 4032.6904 L 4123.38 4033.1004 L 4124.4 4033.3005 L 4125.01 4033.3005 L 4126.04 4033.1004 L 4126.65 4032.6904 L 4126.85 4032.0704 L 4126.85 4031.6605 L 4126.65 4031.0505 L 4126.04 4030.6405 L 4125.01 4030.4404 L 4124.4 4030.4404 L 4123.38 4030.6405 L 4122.76 4031.0505 L 4122.56 4031.6605 L 4122.56 4032.0704 M 4125.01 4029.0904 L 4125.01 4025.4004 M 4123.58 4023.8504 L 4123.38 4023.8504 L 4122.97 4023.6504 L 4122.76 4023.4404 L 4122.56 4023.0304 L 4122.56 4022.2104 L 4122.76 4021.8005 L 4122.97 4021.6004 L 4123.38 4021.4004 L 4123.79 4021.4004 L 4124.2 4021.6004 L 4124.81 4022.0104 L 4126.85 4024.0505 L 4126.85 4021.1904 M 4122.56 4019.8404 L 4126.85 4019.8404 M 4122.56 4019.8404 L 4122.56 4018.0005 L 4122.76 4017.3905 L 4122.97 4017.1804 L 4123.38 4016.9804 L 4123.99 4016.9804 L 4124.4 4017.1804 L 4124.6 4017.3905 L 4124.81 4018.0005 L 4124.81 4019.8404" fill="none"  stroke-width="0.6" c_note="note_name" /></g><g c_partid="part_pcbtext" c_etype="" c_origin="4134,4079" c_rotation="90" c_mirror="0" id="gge267" locked="0" layerid="3" c_shapetype="group" ><path c_fontsize="4.5" c_fontfamily="" c_text="MOTOR2" d="M 4129.46 4079 L 4133.75 4079 M 4129.46 4079 L 4133.75 4077.36 M 4129.46 4075.73 L 4133.75 4077.36 M 4129.46 4075.73 L 4133.75 4075.73 M 4129.46 4073.15 L 4129.66 4073.56 L 4130.07 4073.97 L 4130.48 4074.17 L 4131.1 4074.38 L 4132.12 4074.38 L 4132.73 4074.17 L 4133.14 4073.97 L 4133.55 4073.56 L 4133.75 4073.15 L 4133.75 4072.33 L 4133.55 4071.92 L 4133.14 4071.51 L 4132.73 4071.31 L 4132.12 4071.1 L 4131.1 4071.1 L 4130.48 4071.31 L 4130.07 4071.51 L 4129.66 4071.92 L 4129.46 4072.33 L 4129.46 4073.15 M 4129.46 4068.32 L 4133.75 4068.32 M 4129.46 4069.75 L 4129.46 4066.89 M 4129.46 4064.31 L 4129.66 4064.72 L 4130.07 4065.13 L 4130.48 4065.34 L 4131.1 4065.54 L 4132.12 4065.54 L 4132.73 4065.34 L 4133.14 4065.13 L 4133.55 4064.72 L 4133.75 4064.31 L 4133.75 4063.5 L 4133.55 4063.09 L 4133.14 4062.68 L 4132.73 4062.47 L 4132.12 4062.27 L 4131.1 4062.27 L 4130.48 4062.47 L 4130.07 4062.68 L 4129.66 4063.09 L 4129.46 4063.5 L 4129.46 4064.31 M 4129.46 4060.92 L 4133.75 4060.92 M 4129.46 4060.92 L 4129.46 4059.08 L 4129.66 4058.46 L 4129.87 4058.26 L 4130.28 4058.05 L 4130.69 4058.05 L 4131.1 4058.26 L 4131.3 4058.46 L 4131.5 4059.08 L 4131.5 4060.92 M 4131.5 4059.49 L 4133.75 4058.05 M 4130.48 4056.5 L 4130.28 4056.5 L 4129.87 4056.3 L 4129.66 4056.09 L 4129.46 4055.68 L 4129.46 4054.86 L 4129.66 4054.45 L 4129.87 4054.25 L 4130.28 4054.05 L 4130.69 4054.05 L 4131.1 4054.25 L 4131.71 4054.66 L 4133.75 4056.7 L 4133.75 4053.84" fill="none"  stroke-width="0.6" c_note="note_pre" /></g><g c_partid="part_pcbtext" c_etype="" c_origin="4084.6,3999.95" c_rotation="0" c_mirror="0" id="gge286" locked="0" layerid="3" c_shapetype="group" display="none"><path c_fontsize="4.5" c_fontfamily="" c_text="Pololu DRV8835" d="M 4084.6 3995.41 L 4084.6 3999.7 M 4084.6 3995.41 L 4086.44 3995.41 L 4087.05 3995.61 L 4087.26 3995.82 L 4087.46 3996.23 L 4087.46 3996.84 L 4087.26 3997.25 L 4087.05 3997.45 L 4086.44 3997.66 L 4084.6 3997.66 M 4089.84 3996.84 L 4089.43 3997.05 L 4089.02 3997.45 L 4088.81 3998.07 L 4088.81 3998.48 L 4089.02 3999.09 L 4089.43 3999.5 L 4089.84 3999.7 L 4090.45 3999.7 L 4090.86 3999.5 L 4091.27 3999.09 L 4091.47 3998.48 L 4091.47 3998.07 L 4091.27 3997.45 L 4090.86 3997.05 L 4090.45 3996.84 L 4089.84 3996.84 M 4092.82 3995.41 L 4092.82 3999.7 M 4095.2 3996.84 L 4094.79 3997.05 L 4094.38 3997.45 L 4094.17 3998.07 L 4094.17 3998.48 L 4094.38 3999.09 L 4094.79 3999.5 L 4095.2 3999.7 L 4095.81 3999.7 L 4096.22 3999.5 L 4096.63 3999.09 L 4096.83 3998.48 L 4096.83 3998.07 L 4096.63 3997.45 L 4096.22 3997.05 L 4095.81 3996.84 L 4095.2 3996.84 M 4098.18 3995.41 L 4098.18 3999.7 M 4099.53 3996.84 L 4099.53 3998.89 L 4099.74 3999.5 L 4100.15 3999.7 L 4100.76 3999.7 L 4101.17 3999.5 L 4101.78 3998.89 M 4101.78 3996.84 L 4101.78 3999.7 M 4106.28 3995.41 L 4106.28 3999.7 M 4106.28 3995.41 L 4107.71 3995.41 L 4108.33 3995.61 L 4108.74 3996.02 L 4108.94 3996.43 L 4109.15 3997.05 L 4109.15 3998.07 L 4108.94 3998.68 L 4108.74 3999.09 L 4108.33 3999.5 L 4107.71 3999.7 L 4106.28 3999.7 M 4110.5 3995.41 L 4110.5 3999.7 M 4110.5 3995.41 L 4112.34 3995.41 L 4112.95 3995.61 L 4113.15 3995.82 L 4113.36 3996.23 L 4113.36 3996.64 L 4113.15 3997.05 L 4112.95 3997.25 L 4112.34 3997.45 L 4110.5 3997.45 M 4111.93 3997.45 L 4113.36 3999.7 M 4114.71 3995.41 L 4116.35 3999.7 M 4117.98 3995.41 L 4116.35 3999.7 M 4120.35 3995.41 L 4119.74 3995.61 L 4119.54 3996.02 L 4119.54 3996.43 L 4119.74 3996.84 L 4120.15 3997.05 L 4120.97 3997.25 L 4121.58 3997.45 L 4121.99 3997.86 L 4122.2 3998.27 L 4122.2 3998.89 L 4121.99 3999.3 L 4121.79 3999.5 L 4121.17 3999.7 L 4120.35 3999.7 L 4119.74 3999.5 L 4119.54 3999.3 L 4119.33 3998.89 L 4119.33 3998.27 L 4119.54 3997.86 L 4119.95 3997.45 L 4120.56 3997.25 L 4121.38 3997.05 L 4121.79 3996.84 L 4121.99 3996.43 L 4121.99 3996.02 L 4121.79 3995.61 L 4121.17 3995.41 L 4120.35 3995.41 M 4124.57 3995.41 L 4123.95 3995.61 L 4123.75 3996.02 L 4123.75 3996.43 L 4123.95 3996.84 L 4124.36 3997.05 L 4125.18 3997.25 L 4125.8 3997.45 L 4126.2 3997.86 L 4126.41 3998.27 L 4126.41 3998.89 L 4126.2 3999.3 L 4126 3999.5 L 4125.39 3999.7 L 4124.57 3999.7 L 4123.95 3999.5 L 4123.75 3999.3 L 4123.55 3998.89 L 4123.55 3998.27 L 4123.75 3997.86 L 4124.16 3997.45 L 4124.77 3997.25 L 4125.59 3997.05 L 4126 3996.84 L 4126.2 3996.43 L 4126.2 3996.02 L 4126 3995.61 L 4125.39 3995.41 L 4124.57 3995.41 M 4128.17 3995.41 L 4130.42 3995.41 L 4129.19 3997.05 L 4129.8 3997.05 L 4130.21 3997.25 L 4130.42 3997.45 L 4130.62 3998.07 L 4130.62 3998.48 L 4130.42 3999.09 L 4130.01 3999.5 L 4129.4 3999.7 L 4128.78 3999.7 L 4128.17 3999.5 L 4127.96 3999.3 L 4127.76 3998.89 M 4134.43 3995.41 L 4132.38 3995.41 L 4132.18 3997.25 L 4132.38 3997.05 L 4133 3996.84 L 4133.61 3996.84 L 4134.22 3997.05 L 4134.63 3997.45 L 4134.84 3998.07 L 4134.84 3998.48 L 4134.63 3999.09 L 4134.22 3999.5 L 4133.61 3999.7 L 4133 3999.7 L 4132.38 3999.5 L 4132.18 3999.3 L 4131.97 3998.89" fill="none"  stroke-width="0.6" c_note="note_name" /></g><g c_partid="part_pcbtext" c_etype="" c_origin="4000.5,4009" c_rotation="0" c_mirror="0" id="gge288" locked="0" layerid="3" c_shapetype="group" display="none"><path c_fontsize="4.5" c_fontfamily="" c_text="DRIVER1" d="M 4000.5 4004.46 L 4000.5 4008.75 M 4000.5 4004.46 L 4001.93 4004.46 L 4002.55 4004.66 L 4002.95 4005.07 L 4003.16 4005.48 L 4003.36 4006.1 L 4003.36 4007.12 L 4003.16 4007.73 L 4002.95 4008.14 L 4002.55 4008.55 L 4001.93 4008.75 L 4000.5 4008.75 M 4004.71 4004.46 L 4004.71 4008.75 M 4004.71 4004.46 L 4006.55 4004.46 L 4007.17 4004.66 L 4007.37 4004.87 L 4007.58 4005.28 L 4007.58 4005.69 L 4007.37 4006.1 L 4007.17 4006.3 L 4006.55 4006.5 L 4004.71 4006.5 M 4006.15 4006.5 L 4007.58 4008.75 M 4008.93 4004.46 L 4008.93 4008.75 M 4010.28 4004.46 L 4011.91 4008.75 M 4013.55 4004.46 L 4011.91 4008.75 M 4014.9 4004.46 L 4014.9 4008.75 M 4014.9 4004.46 L 4017.56 4004.46 M 4014.9 4006.5 L 4016.54 4006.5 M 4014.9 4008.75 L 4017.56 4008.75 M 4018.91 4004.46 L 4018.91 4008.75 M 4018.91 4004.46 L 4020.75 4004.46 L 4021.36 4004.66 L 4021.57 4004.87 L 4021.77 4005.28 L 4021.77 4005.69 L 4021.57 4006.1 L 4021.36 4006.3 L 4020.75 4006.5 L 4018.91 4006.5 M 4020.34 4006.5 L 4021.77 4008.75 M 4023.12 4005.28 L 4023.53 4005.07 L 4024.15 4004.46 L 4024.15 4008.75" fill="none"  stroke-width="0.6" c_note="note_pre" /></g><g c_partid="part_pcbtext" c_etype="pinpart" c_origin="4074.6,4019.45" c_rotation="0" c_mirror="0" id="gge290" locked="0" layerid="3" c_shapetype="group" ><path c_fontsize="3.1496" c_fontfamily="" c_text="GND" d="M 4076.75 4016.99 L 4076.6 4016.7 L 4076.32 4016.41 L 4076.03 4016.27 L 4075.46 4016.27 L 4075.17 4016.41 L 4074.89 4016.7 L 4074.74 4016.99 L 4074.6 4017.42 L 4074.6 4018.13 L 4074.74 4018.56 L 4074.89 4018.85 L 4075.17 4019.14 L 4075.46 4019.28 L 4076.03 4019.28 L 4076.32 4019.14 L 4076.6 4018.85 L 4076.75 4018.56 L 4076.75 4018.13 M 4076.03 4018.13 L 4076.75 4018.13 M 4077.69 4016.27 L 4077.69 4019.28 M 4077.69 4016.27 L 4079.7 4019.28 M 4079.7 4016.27 L 4079.7 4019.28 M 4080.64 4016.27 L 4080.64 4019.28 M 4080.64 4016.27 L 4081.64 4016.27 L 4082.07 4016.41 L 4082.36 4016.7 L 4082.5 4016.99 L 4082.65 4017.42 L 4082.65 4018.13 L 4082.5 4018.56 L 4082.36 4018.85 L 4082.07 4019.14 L 4081.64 4019.28 L 4080.64 4019.28" fill="none"  stroke-width="0.7874"  /></g><g c_partid="part_pcbtext" c_etype="pinpart" c_origin="4074.6,4030.45" c_rotation="0" c_mirror="0" id="gge292" locked="0" layerid="3" c_shapetype="group" ><path c_fontsize="3.1496" c_fontfamily="" c_text="VCC" d="M 4074.6 4027.27 L 4075.75 4030.28 M 4076.89 4027.27 L 4075.75 4030.28 M 4079.98 4027.99 L 4079.84 4027.7 L 4079.55 4027.41 L 4079.27 4027.27 L 4078.69 4027.27 L 4078.41 4027.41 L 4078.12 4027.7 L 4077.98 4027.99 L 4077.84 4028.42 L 4077.84 4029.13 L 4077.98 4029.56 L 4078.12 4029.85 L 4078.41 4030.14 L 4078.69 4030.28 L 4079.27 4030.28 L 4079.55 4030.14 L 4079.84 4029.85 L 4079.98 4029.56 M 4083.08 4027.99 L 4082.93 4027.7 L 4082.65 4027.41 L 4082.36 4027.27 L 4081.79 4027.27 L 4081.5 4027.41 L 4081.21 4027.7 L 4081.07 4027.99 L 4080.93 4028.42 L 4080.93 4029.13 L 4081.07 4029.56 L 4081.21 4029.85 L 4081.5 4030.14 L 4081.79 4030.28 L 4082.36 4030.28 L 4082.65 4030.14 L 4082.93 4029.85 L 4083.08 4029.56" fill="none"  stroke-width="0.7874"  /></g><g c_partid="part_pcbtext" c_etype="pinpart" c_origin="4088.6,4030.45" c_rotation="0" c_mirror="0" id="gge294" locked="0" layerid="3" c_shapetype="group" ><path c_fontsize="3.1496" c_fontfamily="" c_text="VIN" d="M 4088.6 4027.27 L 4089.75 4030.28 M 4090.89 4027.27 L 4089.75 4030.28 M 4091.84 4027.27 L 4091.84 4030.28 M 4092.78 4027.27 L 4092.78 4030.28 M 4092.78 4027.27 L 4094.78 4030.28 M 4094.78 4027.27 L 4094.78 4030.28" fill="none"  stroke-width="0.7874"  /></g><g c_partid="part_pcbtext" c_etype="pinpart" c_origin="4086.73,4019.45" c_rotation="0" c_mirror="0" id="gge296" locked="0" layerid="3" c_shapetype="group" ><path c_fontsize="3.1496" c_fontfamily="" c_text="GND" d="M 4088.8799 4016.99 L 4088.7299 4016.7 L 4088.4499 4016.41 L 4088.1599 4016.27 L 4087.5899 4016.27 L 4087.2999 4016.41 L 4087.0199 4016.7 L 4086.8699 4016.99 L 4086.7299 4017.42 L 4086.7299 4018.13 L 4086.8699 4018.56 L 4087.0199 4018.85 L 4087.2999 4019.14 L 4087.5899 4019.28 L 4088.1599 4019.28 L 4088.4499 4019.14 L 4088.7299 4018.85 L 4088.8799 4018.56 L 4088.8799 4018.13 M 4088.1599 4018.13 L 4088.8799 4018.13 M 4089.8199 4016.27 L 4089.8199 4019.28 M 4089.8199 4016.27 L 4091.8299 4019.28 M 4091.8299 4016.27 L 4091.8299 4019.28 M 4092.7699 4016.27 L 4092.7699 4019.28 M 4092.7699 4016.27 L 4093.7699 4016.27 L 4094.1999 4016.41 L 4094.4899 4016.7 L 4094.6299 4016.99 L 4094.7799 4017.42 L 4094.7799 4018.13 L 4094.6299 4018.56 L 4094.4899 4018.85 L 4094.1999 4019.14 L 4093.7699 4019.28 L 4092.7699 4019.28" fill="none"  stroke-width="0.7874"  /></g><g c_partid="part_pcbtext" c_etype="pinpart" c_origin="4074.6,4040.45" c_rotation="0" c_mirror="0" id="gge298" locked="0" layerid="3" c_shapetype="group" ><path c_fontsize="3.1496" c_fontfamily="" c_text="BE" d="M 4074.6 4037.27 L 4074.6 4040.28 M 4074.6 4037.27 L 4075.89 4037.27 L 4076.32 4037.41 L 4076.46 4037.56 L 4076.6 4037.84 L 4076.6 4038.13 L 4076.46 4038.42 L 4076.32 4038.56 L 4075.89 4038.7 M 4074.6 4038.7 L 4075.89 4038.7 L 4076.32 4038.85 L 4076.46 4038.99 L 4076.6 4039.28 L 4076.6 4039.71 L 4076.46 4039.99 L 4076.32 4040.14 L 4075.89 4040.28 L 4074.6 4040.28 M 4077.55 4037.27 L 4077.55 4040.28 M 4077.55 4037.27 L 4079.41 4037.27 M 4077.55 4038.7 L 4078.69 4038.7 M 4077.55 4040.28 L 4079.41 4040.28" fill="none"  stroke-width="0.7874"  /></g><g c_partid="part_pcbtext" c_etype="pinpart" c_origin="4074.6,4050.45" c_rotation="0" c_mirror="0" id="gge300" locked="0" layerid="3" c_shapetype="group" ><path c_fontsize="3.1496" c_fontfamily="" c_text="BPH" d="M 4074.6 4047.27 L 4074.6 4050.28 M 4074.6 4047.27 L 4075.89 4047.27 L 4076.32 4047.41 L 4076.46 4047.56 L 4076.6 4047.84 L 4076.6 4048.13 L 4076.46 4048.42 L 4076.32 4048.56 L 4075.89 4048.7 M 4074.6 4048.7 L 4075.89 4048.7 L 4076.32 4048.85 L 4076.46 4048.99 L 4076.6 4049.28 L 4076.6 4049.71 L 4076.46 4049.99 L 4076.32 4050.14 L 4075.89 4050.28 L 4074.6 4050.28 M 4077.55 4047.27 L 4077.55 4050.28 M 4077.55 4047.27 L 4078.84 4047.27 L 4079.27 4047.41 L 4079.41 4047.56 L 4079.55 4047.84 L 4079.55 4048.27 L 4079.41 4048.56 L 4079.27 4048.7 L 4078.84 4048.85 L 4077.55 4048.85 M 4080.5 4047.27 L 4080.5 4050.28 M 4082.5 4047.27 L 4082.5 4050.28 M 4080.5 4048.7 L 4082.5 4048.7" fill="none"  stroke-width="0.7874"  /></g><g c_partid="part_pcbtext" c_etype="pinpart" c_origin="4074.6,4060.45" c_rotation="0" c_mirror="0" id="gge302" locked="0" layerid="3" c_shapetype="group" ><path c_fontsize="3.1496" c_fontfamily="" c_text="AE" d="M 4075.75 4057.27 L 4074.6 4060.28 M 4075.75 4057.27 L 4076.89 4060.28 M 4075.03 4059.28 L 4076.46 4059.28 M 4077.84 4057.27 L 4077.84 4060.28 M 4077.84 4057.27 L 4079.7 4057.27 M 4077.84 4058.7 L 4078.98 4058.7 M 4077.84 4060.28 L 4079.7 4060.28" fill="none"  stroke-width="0.7874"  /></g><g c_partid="part_pcbtext" c_etype="pinpart" c_origin="4074.6,4070.45" c_rotation="0" c_mirror="0" id="gge304" locked="0" layerid="3" c_shapetype="group" ><path c_fontsize="3.1496" c_fontfamily="" c_text="APH" d="M 4075.75 4067.27 L 4074.6 4070.28 M 4075.75 4067.27 L 4076.89 4070.28 M 4075.03 4069.28 L 4076.46 4069.28 M 4077.84 4067.27 L 4077.84 4070.28 M 4077.84 4067.27 L 4079.12 4067.27 L 4079.55 4067.41 L 4079.7 4067.56 L 4079.84 4067.84 L 4079.84 4068.27 L 4079.7 4068.56 L 4079.55 4068.7 L 4079.12 4068.85 L 4077.84 4068.85 M 4080.78 4067.27 L 4080.78 4070.28 M 4082.79 4067.27 L 4082.79 4070.28 M 4080.78 4068.7 L 4082.79 4068.7" fill="none"  stroke-width="0.7874"  /></g><g c_partid="part_pcbtext" c_etype="pinpart" c_origin="4074.6,4079.45" c_rotation="0" c_mirror="0" id="gge306" locked="0" layerid="3" c_shapetype="group" ><path c_fontsize="3.1496" c_fontfamily="" c_text="MOD" d="M 4074.6 4076.27 L 4074.6 4079.28 M 4074.6 4076.27 L 4075.75 4079.28 M 4076.89 4076.27 L 4075.75 4079.28 M 4076.89 4076.27 L 4076.89 4079.28 M 4078.69 4076.27 L 4078.41 4076.41 L 4078.12 4076.7 L 4077.98 4076.99 L 4077.84 4077.42 L 4077.84 4078.13 L 4077.98 4078.56 L 4078.12 4078.85 L 4078.41 4079.14 L 4078.69 4079.28 L 4079.27 4079.28 L 4079.55 4079.14 L 4079.84 4078.85 L 4079.98 4078.56 L 4080.13 4078.13 L 4080.13 4077.42 L 4079.98 4076.99 L 4079.84 4076.7 L 4079.55 4076.41 L 4079.27 4076.27 L 4078.69 4076.27 M 4081.07 4076.27 L 4081.07 4079.28 M 4081.07 4076.27 L 4082.07 4076.27 L 4082.5 4076.41 L 4082.79 4076.7 L 4082.93 4076.99 L 4083.08 4077.42 L 4083.08 4078.13 L 4082.93 4078.56 L 4082.79 4078.85 L 4082.5 4079.14 L 4082.07 4079.28 L 4081.07 4079.28" fill="none"  stroke-width="0.7874"  /></g><g c_partid="part_pcbtext" c_etype="pinpart" c_origin="4086.59,4040.45" c_rotation="0" c_mirror="0" id="gge308" locked="0" layerid="3" c_shapetype="group" ><path c_fontsize="3.1496" c_fontfamily="" c_text="BO2" d="M 4086.59 4037.27 L 4086.59 4040.28 M 4086.59 4037.27 L 4087.88 4037.27 L 4088.31 4037.41 L 4088.45 4037.56 L 4088.59 4037.84 L 4088.59 4038.13 L 4088.45 4038.42 L 4088.31 4038.56 L 4087.88 4038.7 M 4086.59 4038.7 L 4087.88 4038.7 L 4088.31 4038.85 L 4088.45 4038.99 L 4088.59 4039.28 L 4088.59 4039.71 L 4088.45 4039.99 L 4088.31 4040.14 L 4087.88 4040.28 L 4086.59 4040.28 M 4090.4 4037.27 L 4090.11 4037.41 L 4089.83 4037.7 L 4089.68 4037.99 L 4089.54 4038.42 L 4089.54 4039.13 L 4089.68 4039.56 L 4089.83 4039.85 L 4090.11 4040.14 L 4090.4 4040.28 L 4090.97 4040.28 L 4091.26 4040.14 L 4091.54 4039.85 L 4091.69 4039.56 L 4091.83 4039.13 L 4091.83 4038.42 L 4091.69 4037.99 L 4091.54 4037.7 L 4091.26 4037.41 L 4090.97 4037.27 L 4090.4 4037.27 M 4092.92 4037.99 L 4092.92 4037.84 L 4093.06 4037.56 L 4093.2 4037.41 L 4093.49 4037.27 L 4094.06 4037.27 L 4094.35 4037.41 L 4094.49 4037.56 L 4094.64 4037.84 L 4094.64 4038.13 L 4094.49 4038.42 L 4094.21 4038.85 L 4092.77 4040.28 L 4094.78 4040.28" fill="none"  stroke-width="0.7874"  /></g><g c_partid="part_pcbtext" c_etype="pinpart" c_origin="4087.88,4050.45" c_rotation="0" c_mirror="0" id="gge310" locked="0" layerid="3" c_shapetype="group" ><path c_fontsize="3.1496" c_fontfamily="" c_text="BO1" d="M 4087.8801 4047.27 L 4087.8801 4050.28 M 4087.8801 4047.27 L 4089.1701 4047.27 L 4089.6001 4047.41 L 4089.7401 4047.56 L 4089.8801 4047.84 L 4089.8801 4048.13 L 4089.7401 4048.42 L 4089.6001 4048.56 L 4089.1701 4048.7 M 4087.8801 4048.7 L 4089.1701 4048.7 L 4089.6001 4048.85 L 4089.7401 4048.99 L 4089.8801 4049.28 L 4089.8801 4049.71 L 4089.7401 4049.99 L 4089.6001 4050.14 L 4089.1701 4050.28 L 4087.8801 4050.28 M 4091.6901 4047.27 L 4091.4001 4047.41 L 4091.1201 4047.7 L 4090.9701 4047.99 L 4090.8301 4048.42 L 4090.8301 4049.13 L 4090.9701 4049.56 L 4091.1201 4049.85 L 4091.4001 4050.14 L 4091.6901 4050.28 L 4092.2601 4050.28 L 4092.5501 4050.14 L 4092.8301 4049.85 L 4092.9801 4049.56 L 4093.1201 4049.13 L 4093.1201 4048.42 L 4092.9801 4047.99 L 4092.8301 4047.7 L 4092.5501 4047.41 L 4092.2601 4047.27 L 4091.6901 4047.27 M 4094.0601 4047.84 L 4094.3501 4047.7 L 4094.7801 4047.27 L 4094.7801 4050.28" fill="none"  stroke-width="0.7874"  /></g><g c_partid="part_pcbtext" c_etype="pinpart" c_origin="4086.3,4060.45" c_rotation="0" c_mirror="0" id="gge312" locked="0" layerid="3" c_shapetype="group" ><path c_fontsize="3.1496" c_fontfamily="" c_text="AO2" d="M 4087.45 4057.27 L 4086.3 4060.28 M 4087.45 4057.27 L 4088.59 4060.28 M 4086.73 4059.28 L 4088.16 4059.28 M 4090.39 4057.27 L 4090.11 4057.41 L 4089.82 4057.7 L 4089.68 4057.99 L 4089.54 4058.42 L 4089.54 4059.13 L 4089.68 4059.56 L 4089.82 4059.85 L 4090.11 4060.14 L 4090.39 4060.28 L 4090.97 4060.28 L 4091.25 4060.14 L 4091.54 4059.85 L 4091.68 4059.56 L 4091.83 4059.13 L 4091.83 4058.42 L 4091.68 4057.99 L 4091.54 4057.7 L 4091.25 4057.41 L 4090.97 4057.27 L 4090.39 4057.27 M 4092.91 4057.99 L 4092.91 4057.84 L 4093.06 4057.56 L 4093.2 4057.41 L 4093.49 4057.27 L 4094.06 4057.27 L 4094.35 4057.41 L 4094.49 4057.56 L 4094.63 4057.84 L 4094.63 4058.13 L 4094.49 4058.42 L 4094.2 4058.85 L 4092.77 4060.28 L 4094.78 4060.28" fill="none"  stroke-width="0.7874"  /></g><g c_partid="part_pcbtext" c_etype="pinpart" c_origin="4087.59,4070.45" c_rotation="0" c_mirror="0" id="gge314" locked="0" layerid="3" c_shapetype="group" ><path c_fontsize="3.1496" c_fontfamily="" c_text="AO1" d="M 4088.74 4067.27 L 4087.59 4070.28 M 4088.74 4067.27 L 4089.88 4070.28 M 4088.02 4069.28 L 4089.45 4069.28 M 4091.68 4067.27 L 4091.4 4067.41 L 4091.11 4067.7 L 4090.97 4067.99 L 4090.83 4068.42 L 4090.83 4069.13 L 4090.97 4069.56 L 4091.11 4069.85 L 4091.4 4070.14 L 4091.68 4070.28 L 4092.26 4070.28 L 4092.54 4070.14 L 4092.83 4069.85 L 4092.97 4069.56 L 4093.12 4069.13 L 4093.12 4068.42 L 4092.97 4067.99 L 4092.83 4067.7 L 4092.54 4067.41 L 4092.26 4067.27 L 4091.68 4067.27 M 4094.06 4067.84 L 4094.35 4067.7 L 4094.78 4067.27 L 4094.78 4070.28" fill="none"  stroke-width="0.7874"  /></g><g c_partid="part_pcbtext" c_etype="pinpart" c_origin="4086.02,4079.45" c_rotation="0" c_mirror="0" id="gge316" locked="0" layerid="3" c_shapetype="group" ><path c_fontsize="3.1496" c_fontfamily="" c_text="VMM" d="M 4086.02 4076.27 L 4087.17 4079.28 M 4088.31 4076.27 L 4087.17 4079.28 M 4089.26 4076.27 L 4089.26 4079.28 M 4089.26 4076.27 L 4090.4 4079.28 M 4091.55 4076.27 L 4090.4 4079.28 M 4091.55 4076.27 L 4091.55 4079.28 M 4092.49 4076.27 L 4092.49 4079.28 M 4092.49 4076.27 L 4093.64 4079.28 M 4094.78 4076.27 L 4093.64 4079.28 M 4094.78 4076.27 L 4094.78 4079.28" fill="none"  stroke-width="0.7874"  /></g><path d="M 4154.99 3942.75 A 15.74803 15.74803 0 1 0 4154.71 3942.75" locked="0"  fill="none" stroke-width="1" c_helper_type="arc2" net="" layerid="3" id="gge786" /><circle cx="4063.6" cy="4011.95" r="1.969" stroke-width="1" fill="none" layerid="3" id="gge318" locked="0"  /><path d="M 4144.1732 3915.189 A 17.1259 17.1259 0 0 0 4144.1732 3938.811 Z " stroke-width="0"   net="" type="solid" layerid="3" id="gge787" locked="0" c_teardrop="" c_targetpad="" c_targetwire="" /><polyline points="4050.5984 4077.3898 4050.5984 3877.5118" stroke-width="1"  stroke-linecap="round" fill="none" layerid="10" net="" id="gge1109" locked="0" /><polyline points="4163.185 4089.9016 4063.1102 4089.9016" stroke-width="1"  stroke-linecap="round" fill="none" layerid="10" net="" id="gge1107" locked="0" /><polyline points="4175.6969 3877.5118 4175.6969 4077.3898" stroke-width="1"  stroke-linecap="round" fill="none" layerid="10" net="" id="gge1105" locked="0" /><polyline points="4063.1102 3865 4163.185 3865" stroke-width="1"  stroke-linecap="round" fill="none" layerid="10" net="" id="gge1103" locked="0" /><path d="M4163.185 3865A12.5118 12.5118 0 0 1 4175.6969 3877.5118" locked="0"  fill="none" stroke-width="1" c_helper_type="arc2" net="" layerid="10" id="gge1104" /><path d="M4175.6969 4077.3898A12.5118 12.5118 0 0 1 4163.185 4089.9016" locked="0"  fill="none" stroke-width="1" c_helper_type="arc2" net="" layerid="10" id="gge1106" /><path d="M4063.1102 4089.9016A12.5118 12.5118 0 0 1 4050.5984 4077.3898" locked="0"  fill="none" stroke-width="1" c_helper_type="arc2" net="" layerid="10" id="gge1108" /><path d="M4050.5984 3877.5118A12.5118 12.5118 0 0 1 4063.1102 3865" locked="0"  fill="none" stroke-width="1" c_helper_type="arc2" net="" layerid="10" id="gge1110" /></svg>